<svg viewBox="0 0 100 100" fill="none" xmlns="http://www.w3.org/2000/svg">
<path d="M66.1079 82.236C74.0134 82.236 80.4219 75.8274 80.4219 67.922C80.4219 60.0166 74.0134 53.608 66.1079 53.608C58.2025 53.608 51.7939 60.0166 51.7939 67.922C51.7939 75.8274 58.2025 82.236 66.1079 82.236Z" stroke="black" stroke-width="2" stroke-linecap="round" stroke-linejoin="round"/>
<path d="M66.108 86.02C76.058 86.02 84.124 77.9539 84.124 68.004C84.124 58.054 76.058 49.988 66.108 49.988C56.1581 49.988 48.092 58.054 48.092 68.004C48.092 77.9539 56.1581 86.02 66.108 86.02Z" stroke="black" stroke-width="2" stroke-linecap="round" stroke-linejoin="round"/>
<path d="M73.1 62.164L69.316 75.326L66.19 66.276L63.064 75.326L59.28 62.164" stroke="black" stroke-width="2" stroke-linecap="round" stroke-linejoin="round"/>
<path d="M57.306 67.758H74.91" stroke="black" stroke-width="2" stroke-linecap="round" stroke-linejoin="round"/>
<path d="M57.306 70.554H74.91" stroke="black" stroke-width="2" stroke-linecap="round" stroke-linejoin="round"/>
<path d="M47.918 10.766L18.072 26.768C16.994 27.346 17.064 28.912 18.188 29.394L47.99 42.142C48.378 42.308 48.816 42.298 49.196 42.114L77.788 29.138C78.868 28.618 78.894 27.09 77.832 26.534L49.284 10.76C48.856 10.536 48.344 10.538 47.918 10.766Z" stroke="black" stroke-width="2" stroke-linecap="round" stroke-linejoin="round"/>
<path d="M66.8879 34.36V49.674" stroke="black" stroke-width="2" stroke-linecap="round" stroke-linejoin="round"/>
<path d="M48.278 63H41.858C35.124 63 29.666 57.542 29.666 50.808V34.36" stroke="black" stroke-width="2" stroke-linecap="round" stroke-linejoin="round"/>
<path d="M48.278 26.282L23.53 31.732V44.5" stroke="black" stroke-width="2" stroke-linecap="round" stroke-linejoin="round"/>
<path d="M23.6 44.8C25.146 44.8 26.4 46.054 26.4 47.6V57.6H20.8V47.6C20.8 46.054 22.054 44.8 23.6 44.8Z" stroke="black" stroke-width="2" stroke-linecap="round" stroke-linejoin="round"/>
</svg>
