<svg viewBox="0 0 100 100" fill="none" xmlns="http://www.w3.org/2000/svg">
<path d="M50.7849 28.3758L55.9084 23.2737C55.9084 23.2737 54.0539 20.7846 50.9236 21.849C50.0656 22.1412 48.8501 22.3953 48.3076 21.673C46.5816 19.366 41.3255 19.52 39.5996 21.673C39.035 22.3773 37.8416 22.1412 36.9836 21.849C33.8533 20.7846 31.9988 23.2737 31.9988 23.2737L37.1223 28.3758" stroke="#211E1C" stroke-width="2" stroke-linecap="round" stroke-linejoin="round"/>
<path d="M50.4838 28.776H37.4239C36.4252 28.776 35.6156 29.5822 35.6156 30.5768C35.6156 31.5713 36.4252 32.3775 37.4239 32.3775H50.4838C51.4825 32.3775 52.2921 31.5713 52.2921 30.5768C52.2921 29.5822 51.4825 28.776 50.4838 28.776Z" stroke="#211E1C" stroke-width="2" stroke-linecap="round" stroke-linejoin="round"/>
<path d="M62.5008 48.5084C68.1427 57.1422 72.3078 65.984 68.6691 72.1966C68.6691 72.1966 64.4497 80 56.4129 80H31.0968C23.06 80 19.2424 72.1966 19.2424 72.1966C12.2102 60.1915 37.3254 32.3795 37.3254 32.3795" stroke="#211E1C" stroke-width="2" stroke-linecap="round" stroke-linejoin="round"/>
<path d="M50.5842 32.3774C50.5842 32.3774 52.1657 34.1742 54.8627 37.5977" stroke="#211E1C" stroke-width="2" stroke-linecap="round" stroke-linejoin="round"/>
<path d="M52.7019 49.3849L47.9682 65.7819L44.0562 54.5091L40.1463 65.7819L35.4126 49.3849" stroke="#211E1C" stroke-width="2" stroke-linecap="round" stroke-linejoin="round"/>
<path d="M32.9432 56.3539H54.9662" stroke="#211E1C" stroke-width="2" stroke-linecap="round" stroke-linejoin="round"/>
<path d="M32.9432 59.8395H54.9662" stroke="#211E1C" stroke-width="2" stroke-linecap="round" stroke-linejoin="round"/>
<path d="M64.9541 48.5886C70.5024 48.5886 75.0002 44.1095 75.0002 38.5843C75.0002 33.059 70.5024 28.58 64.9541 28.58C59.4058 28.58 54.908 33.059 54.908 38.5843C54.908 44.1095 59.4058 48.5886 64.9541 48.5886Z" stroke="#211E1C" stroke-width="2" stroke-linecap="round" stroke-linejoin="round"/>
<path d="M60.5338 35.3828L65.0545 39.8847L68.1688 36.7834" stroke="#211E1C" stroke-width="2" stroke-linecap="round" stroke-linejoin="round"/>
<path d="M64.954 28.1797V25.5786" stroke="#211E1C" stroke-width="2" stroke-linecap="round" stroke-linejoin="round"/>
<path d="M62.543 25.1783H67.1651" stroke="#211E1C" stroke-width="2" stroke-linecap="round" stroke-linejoin="round"/>
</svg>
