<svg viewBox="0 0 100 100" fill="none" xmlns="http://www.w3.org/2000/svg">
<path d="M60.4109 54.4944L54.9438 74.1041L50.4275 60.6224L45.9112 74.1041L40.4441 54.4944" stroke="#211E1C" stroke-width="2" stroke-linecap="round" stroke-linejoin="round"/>
<path d="M37.5918 62.8285H63.0257" stroke="#211E1C" stroke-width="2" stroke-linecap="round" stroke-linejoin="round"/>
<path d="M37.5918 66.9956H63.0257" stroke="#211E1C" stroke-width="2" stroke-linecap="round" stroke-linejoin="round"/>
<path d="M81.2593 43.4641H19.2593V83.2963H81.2593V43.4641Z" stroke="#211E1C" stroke-width="2" stroke-linecap="round" stroke-linejoin="round"/>
<path d="M19.6553 56.7413C19.6553 56.7413 32.2335 57.1499 32.2335 43.7703" stroke="#211E1C" stroke-width="2" stroke-linecap="round" stroke-linejoin="round"/>
<path d="M32.2336 83.2961C32.2336 83.2961 32.6297 70.3251 19.6553 70.3251" stroke="#211E1C" stroke-width="2" stroke-linecap="round" stroke-linejoin="round"/>
<path d="M79.9716 70.3253C79.9716 70.3253 67.3933 69.9167 67.3933 83.2963" stroke="#211E1C" stroke-width="2" stroke-linecap="round" stroke-linejoin="round"/>
<path d="M67.3934 43.7703C67.3934 43.7703 66.9972 56.7413 79.9717 56.7413" stroke="#211E1C" stroke-width="2" stroke-linecap="round" stroke-linejoin="round"/>
<path d="M67.3933 38.3573V16.5006" stroke="#211E1C" stroke-width="2" stroke-linecap="round" stroke-linejoin="round"/>
<path d="M76.9015 26.1011L67.3935 16.2963L57.8855 26.1011" stroke="#211E1C" stroke-width="2" stroke-linecap="round" stroke-linejoin="round"/>
</svg>
