<svg viewBox="0 0 100 100" fill="none" xmlns="http://www.w3.org/2000/svg">
<path d="M49.5801 83.037C34.5273 83.037 22.2 66.6492 21.4815 50.5365V27.519C21.4815 26.5041 22.1478 25.6068 23.1233 25.3057L49.9815 17.037L76.8397 25.3057C77.8152 25.6068 78.4815 26.5041 78.4815 27.519V50.5365C77.763 66.6492 64.6329 83.037 49.5801 83.037Z" stroke="#211E1C" stroke-width="2" stroke-miterlimit="10"/>
<path d="M49.8049 72.1703C39.4144 72.1703 30.9045 60.8569 30.4068 49.735V33.8456C30.4068 33.1438 30.8664 32.5257 31.5408 32.3183L50.0818 26.6118L68.6229 32.3183C69.2973 32.5257 69.7569 33.1458 69.7569 33.8456V49.735C69.2611 60.8569 60.1973 72.1703 49.8049 72.1703Z" stroke="#211E1C" stroke-width="2" stroke-miterlimit="10"/>
<path d="M41.2508 47.8447L47.4726 53.627L58.7121 43.2587" stroke="#211E1C" stroke-width="2" stroke-linecap="round" stroke-linejoin="round"/>
</svg>
