<svg viewBox="0 0 100 100" fill="none" xmlns="http://www.w3.org/2000/svg">
<path d="M38.6331 56.5115C48.7604 56.5115 56.9702 48.3717 56.9702 38.3307C56.9702 28.2898 48.7604 20.15 38.6331 20.15C28.5058 20.15 20.296 28.2898 20.296 38.3307C20.296 48.3717 28.5058 56.5115 38.6331 56.5115Z" stroke="#211E1C" stroke-width="2" stroke-linecap="round" stroke-linejoin="round"/>
<path d="M38.6333 61.3175C51.3788 61.3175 61.711 51.0734 61.711 38.4365C61.711 25.7997 51.3788 15.5555 38.6333 15.5555C25.8878 15.5555 15.5555 25.7997 15.5555 38.4365C15.5555 51.0734 25.8878 61.3175 38.6333 61.3175Z" stroke="#211E1C" stroke-width="2" stroke-linecap="round" stroke-linejoin="round"/>
<path d="M47.5896 31.0183L42.7424 47.7354L38.7379 36.241L34.7334 47.7354L29.8861 31.0183" stroke="#211E1C" stroke-width="2" stroke-linecap="round" stroke-linejoin="round"/>
<path d="M27.3578 38.1215H49.9086" stroke="#211E1C" stroke-width="2" stroke-linecap="round" stroke-linejoin="round"/>
<path d="M27.3578 41.675H49.9086" stroke="#211E1C" stroke-width="2" stroke-linecap="round" stroke-linejoin="round"/>
<path d="M52.4649 57.5905L57.1794 52.9162L61.7129 57.411L56.9984 62.0853C56.9984 62.0853 52.3483 57.4749 52.4649 57.5905Z" stroke="#211E1C" stroke-width="2" stroke-linecap="round" stroke-linejoin="round"/>
<path d="M60.2611 67.8365L67.6949 60.4661L72.2283 64.9609L64.7946 72.3313C64.7946 72.3313 60.1444 67.7208 60.2611 67.8365Z" stroke="#211E1C" stroke-width="2" stroke-linecap="round" stroke-linejoin="round"/>
<path d="M55.5545 63.5311L63.3504 55.8017L84.5556 76.8261L76.7597 84.5555C76.7597 84.5555 55.0054 62.9867 55.5545 63.5311Z" stroke="#211E1C" stroke-width="2" stroke-linecap="round" stroke-linejoin="round"/>
</svg>
