<svg width="28" height="28" viewBox="0 0 28 28" fill="none" xmlns="http://www.w3.org/2000/svg">
<path d="M22.6346 8.46309C20.4244 5.82649 15.2367 5.65655 12.4706 5.93304C12.1433 5.96576 11.8182 5.84416 11.5832 5.61401C9.52059 3.59403 7.65199 3.83053 6.4416 4.40205C6.02264 4.59987 5.87726 5.10164 6.04556 5.5333L6.82936 7.54366C7.01621 8.02292 6.80025 8.56022 6.4083 8.89335C5.68619 9.50709 5.17408 10.3384 4.87846 10.9719C4.7215 11.3082 4.42395 11.5695 4.05801 11.6314L2.83316 11.8387C2.3521 11.9201 2 12.3367 2 12.8246V16.1971C2 16.6627 2.32142 17.0668 2.77517 17.1715L4.78003 17.6341C5.07275 17.7016 5.31519 17.9003 5.48465 18.1483C5.96668 18.8539 6.78349 19.627 7.37094 20.1259C7.60562 20.3252 7.74417 20.6143 7.71995 20.9212C7.66483 21.6197 7.53865 22.85 7.42738 23.8877C7.36382 24.4804 7.82758 24.9984 8.42374 24.9984H11.5942C11.6828 24.9984 11.7803 25.0011 11.8356 24.9317C12.02 24.7005 12.2881 23.9204 12.5067 23.1951C12.6574 22.695 13.1563 22.3815 13.6768 22.4257C14.6793 22.511 15.7129 22.462 16.5568 22.3729C17.2538 22.2992 17.8763 22.8979 17.7686 23.5904L17.7082 23.9789C17.6249 24.5146 18.0392 24.9984 18.5814 24.9984H21.4134C21.7992 24.9984 22.1511 24.7773 22.3049 24.4234C22.8242 23.2288 23.6812 21.0205 24.3296 18.5638C25.2972 14.8976 25.5824 11.9796 22.6346 8.46309Z" fill="#334195" stroke="#334195" stroke-width="2"/>
</svg>
