<svg viewBox="0 0 100 100" fill="none" xmlns="http://www.w3.org/2000/svg">
<path d="M17.037 61.9857H27.211V84.2963H17.1549L17.037 61.9857Z" stroke="#211E1C" stroke-width="2" stroke-linecap="round" stroke-linejoin="round"/>
<path d="M63.0691 72.6338L76.3437 61.4407C80.4896 57.8337 85.5642 62.5736 81.606 66.6249L71.2571 76.7632C68.8986 79.0731 66.0947 80.8766 63.0172 82.0636L62.6158 82.2177C61.0082 82.8382 59.3007 83.1545 57.5772 83.1545H27.699C27.6091 83.1545 27.5352 83.0824 27.5352 82.9903L27.4054 66.3207C27.4054 66.2786 27.4214 66.2366 27.4493 66.2066C27.9027 65.7282 31.743 61.879 37.8022 61.879C42.3914 61.7849 46.2278 63.4323 49.7586 65.7822C49.7846 65.8002 49.8166 65.8102 49.8485 65.8102H59.746C61.8569 65.8102 63.6503 67.4055 63.848 69.5133C63.866 69.6974 63.874 69.8876 63.874 70.0898C63.874 70.1538 63.874 70.2159 63.872 70.2799C63.816 72.4997 61.9668 74.2532 59.752 74.2532H46.2238" stroke="#211E1C" stroke-width="2" stroke-linecap="round" stroke-linejoin="round"/>
<path d="M49.6734 54.9191C59.2756 54.9191 67.0597 47.2435 67.0597 37.7753C67.0597 28.307 59.2756 20.6314 49.6734 20.6314C40.0711 20.6314 32.287 28.307 32.287 37.7753C32.287 47.2435 40.0711 54.9191 49.6734 54.9191Z" stroke="#211E1C" stroke-width="2" stroke-linecap="round" stroke-linejoin="round"/>
<path d="M49.6734 59.4514C61.7589 59.4514 71.5562 49.7908 71.5562 37.8739C71.5562 25.9569 61.7589 16.2963 49.6734 16.2963C37.5878 16.2963 27.7905 25.9569 27.7905 37.8739C27.7905 49.7908 37.5878 59.4514 49.6734 59.4514Z" stroke="#211E1C" stroke-width="2" stroke-linecap="round" stroke-linejoin="round"/>
<path d="M58.1666 30.8784L53.5702 46.6428L49.7732 35.8047L45.9762 46.6428L41.3798 30.8784" stroke="#211E1C" stroke-width="2" stroke-linecap="round" stroke-linejoin="round"/>
<path d="M38.9816 37.5781H60.3648" stroke="#211E1C" stroke-width="2" stroke-linecap="round" stroke-linejoin="round"/>
<path d="M38.9816 40.9283H60.3648" stroke="#211E1C" stroke-width="2" stroke-linecap="round" stroke-linejoin="round"/>
</svg>
