<svg viewBox="0 0 69 71" fill="none" xmlns="http://www.w3.org/2000/svg">
<g id="Group 17">
<path id="Vector" d="M1.03705 46.9857H11.2111V69.2963H1.15496L1.03705 46.9857Z" stroke="#211E1C" stroke-width="2" stroke-linecap="round" stroke-linejoin="round"/>
<path id="Vector_2" d="M47.0692 57.6338L60.3438 46.4407C64.4897 42.8337 69.5642 47.5736 65.606 51.6249L55.2572 61.7632C52.8987 64.0731 50.0948 65.8766 47.0173 67.0636L46.6159 67.2177C45.0082 67.8382 43.3007 68.1545 41.5772 68.1545H11.699C11.6092 68.1545 11.5353 68.0824 11.5353 67.9903L11.4055 51.3207C11.4055 51.2786 11.4214 51.2366 11.4494 51.2066C11.9027 50.7282 15.7431 46.879 21.8022 46.879C26.3915 46.7849 30.2279 48.4323 33.7587 50.7822C33.7847 50.8002 33.8166 50.8102 33.8486 50.8102H43.7461C45.857 50.8102 47.6504 52.4055 47.8481 54.5133C47.866 54.6974 47.874 54.8876 47.874 55.0898C47.874 55.1538 47.874 55.2159 47.872 55.2799C47.8161 57.4997 45.9668 59.2532 43.7521 59.2532H30.2239" stroke="#211E1C" stroke-width="2" stroke-linecap="round" stroke-linejoin="round"/>
<path id="Vector_3" d="M33.6734 39.9192C43.2756 39.9192 51.0598 32.2436 51.0598 22.7753C51.0598 13.307 43.2756 5.63147 33.6734 5.63147C24.0712 5.63147 16.287 13.307 16.287 22.7753C16.287 32.2436 24.0712 39.9192 33.6734 39.9192Z" stroke="#211E1C" stroke-width="2" stroke-linecap="round" stroke-linejoin="round"/>
<path id="Vector_4" d="M33.6734 44.4514C45.759 44.4514 55.5563 34.7908 55.5563 22.8739C55.5563 10.9569 45.759 1.29626 33.6734 1.29626C21.5879 1.29626 11.7906 10.9569 11.7906 22.8739C11.7906 34.7908 21.5879 44.4514 33.6734 44.4514Z" stroke="#211E1C" stroke-width="2" stroke-linecap="round" stroke-linejoin="round"/>
<path id="Vector_5" d="M42.1667 15.8784L37.5703 31.6429L33.7732 20.8048L29.9762 31.6429L25.3798 15.8784" stroke="#211E1C" stroke-width="2" stroke-linecap="round" stroke-linejoin="round"/>
<path id="Vector_6" d="M22.9816 22.5781H44.3649" stroke="#211E1C" stroke-width="2" stroke-linecap="round" stroke-linejoin="round"/>
<path id="Vector_7" d="M22.9816 25.9282H44.3649" stroke="#211E1C" stroke-width="2" stroke-linecap="round" stroke-linejoin="round"/>
</g>
</svg>
