<svg width="140" height="132" viewBox="0 0 140 132" fill="none" xmlns="http://www.w3.org/2000/svg">
<path d="M125.067 87.4268H129.928C134.165 87.4268 137.6 84.1949 137.6 80.2085V29.8863C137.6 27.7137 136.561 25.6566 134.769 24.2862L108.129 3.89831C106.76 2.85128 105.05 2.28003 103.286 2.28003H9.2724C5.03529 2.28003 1.6001 5.51197 1.6001 9.49839V80.2085C1.6001 84.1949 5.03529 87.4268 9.2724 87.4268H73.9027" stroke="#211E1C" stroke-width="3" stroke-linecap="round" stroke-linejoin="round"/>
<path d="M104.89 2.6012V25.0094C104.89 26.5275 106.187 27.7582 107.788 27.7582H136.829" stroke="#211E1C" stroke-width="3" stroke-linecap="round" stroke-linejoin="round"/>
<path d="M14.6941 17.9502H88.8759" stroke="#211E1C" stroke-width="3" stroke-linecap="round" stroke-linejoin="round"/>
<path d="M14.6941 35.0503H88.8759" stroke="#211E1C" stroke-width="3" stroke-linecap="round" stroke-linejoin="round"/>
<path d="M14.6941 52.7194H70.3304" stroke="#211E1C" stroke-width="3" stroke-linecap="round" stroke-linejoin="round"/>
<path d="M14.6941 70.9573H57.9668" stroke="#211E1C" stroke-width="3" stroke-linecap="round" stroke-linejoin="round"/>
<path d="M99.5517 92.1964C108.087 92.1964 115.006 85.6984 115.006 77.6827C115.006 69.6671 108.087 63.1691 99.5517 63.1691C91.0164 63.1691 84.0972 69.6671 84.0972 77.6827C84.0972 85.6984 91.0164 92.1964 99.5517 92.1964Z" stroke="#211E1C" stroke-width="3" stroke-linecap="round" stroke-linejoin="round"/>
<path d="M99.3597 103.147C114.439 103.147 126.663 91.6674 126.663 77.5064C126.663 63.3454 114.439 51.8656 99.3597 51.8656C84.2806 51.8656 72.0566 63.3454 72.0566 77.5064C72.0566 91.6674 84.2806 103.147 99.3597 103.147Z" stroke="#211E1C" stroke-width="3" stroke-miterlimit="10"/>
<path d="M99.1011 104.022L111.194 128.688C111.574 129.463 112.748 129.438 113.09 128.647L116.28 121.288C116.488 120.808 117.058 120.565 117.576 120.735L126.572 123.678C127.458 123.968 128.264 123.086 127.828 122.302L115.041 99.2601" stroke="#211E1C" stroke-width="3" stroke-linecap="round" stroke-linejoin="round"/>
<path d="M88.3355 101.253L75.9966 120.721C75.54 121.46 76.2594 122.342 77.1557 122.148L85.5186 120.333C86.0645 120.215 86.6154 120.51 86.7738 121.005L89.5148 129.583C89.7844 130.427 91.0378 130.532 91.4691 129.747L101.612 111.693" stroke="#211E1C" stroke-width="3" stroke-linecap="round" stroke-linejoin="round"/>
</svg>
