<svg width="67" height="74" viewBox="0 0 67 74" fill="none" xmlns="http://www.w3.org/2000/svg">
<g id="Group 21">
<path id="Vector" d="M47.8442 69.0094C55.7135 69.0094 62.0928 62.5645 62.0928 54.6143C62.0928 46.6641 55.7135 40.2192 47.8442 40.2192C39.9749 40.2192 33.5956 46.6641 33.5956 54.6143C33.5956 62.5645 39.9749 69.0094 47.8442 69.0094Z" stroke="#211E1C" stroke-width="2" stroke-linecap="round" stroke-linejoin="round"/>
<path id="Vector_2" d="M47.8445 72.8148C57.7489 72.8148 65.7781 64.703 65.7781 54.6967C65.7781 44.6904 57.7489 36.5786 47.8445 36.5786C37.94 36.5786 29.9108 44.6904 29.9108 54.6967C29.9108 64.703 37.94 72.8148 47.8445 72.8148Z" stroke="#211E1C" stroke-width="2" stroke-linecap="round" stroke-linejoin="round"/>
<path id="Vector_3" d="M54.8063 48.8236L51.0396 62.0602L47.9279 52.9589L44.8162 62.0602L41.0495 48.8236" stroke="#211E1C" stroke-width="2" stroke-linecap="round" stroke-linejoin="round"/>
<path id="Vector_4" d="M39.0825 54.4493H56.608" stroke="#211E1C" stroke-width="2" stroke-linecap="round" stroke-linejoin="round"/>
<path id="Vector_5" d="M39.0825 57.2612H56.608" stroke="#211E1C" stroke-width="2" stroke-linecap="round" stroke-linejoin="round"/>
<path id="Vector_6" d="M12.4527 10.6648H3.66311C2.62189 10.6648 1.77777 11.5196 1.77777 12.5735V65.0734C1.77777 66.1273 2.62189 66.9821 3.66311 66.9821H34.2088" stroke="#211E1C" stroke-width="2" stroke-linecap="round" stroke-linejoin="round"/>
<path id="Vector_7" d="M47.1711 36.2932V12.5735C47.1711 11.5196 46.327 10.6648 45.2857 10.6648H36.1437" stroke="#211E1C" stroke-width="2" stroke-linecap="round" stroke-linejoin="round"/>
<path id="Vector_8" d="M29.0544 6.84315H34.3142C35.0369 6.84315 35.6242 7.43448 35.6242 8.16661V13.565C35.6242 14.2951 35.0389 14.8885 34.3142 14.8885H28.258H19.8964H13.8403C13.1176 14.8885 12.5303 14.2971 12.5303 13.565V8.16661C12.5303 7.43649 13.1156 6.84315 13.8403 6.84315H19.1001C19.1001 2.41822 22.4846 1.81482 24.0772 1.81482C25.6699 1.81482 29.0544 2.41822 29.0544 6.84315Z" stroke="#211E1C" stroke-width="2" stroke-linecap="round" stroke-linejoin="round"/>
<path id="Vector_9" d="M16.3131 21.9281H8.54877V29.7723H16.3131V21.9281Z" stroke="#211E1C" stroke-width="2" stroke-linecap="round" stroke-linejoin="round"/>
<path id="Vector_10" d="M16.3131 36.6108H8.54877V44.455H16.3131V36.6108Z" stroke="#211E1C" stroke-width="2" stroke-linecap="round" stroke-linejoin="round"/>
<path id="Vector_11" d="M16.3131 51.2937H8.54877V59.1379H16.3131V51.2937Z" stroke="#211E1C" stroke-width="2" stroke-linecap="round" stroke-linejoin="round"/>
<path id="Vector_12" d="M20.6928 23.3362H40.2032" stroke="#211E1C" stroke-width="2" stroke-linecap="round" stroke-linejoin="round"/>
<path id="Vector_13" d="M20.6928 28.1632H40.2032" stroke="#211E1C" stroke-width="2" stroke-linecap="round" stroke-linejoin="round"/>
<path id="Vector_14" d="M20.6928 38.2198H39.805" stroke="#211E1C" stroke-width="2" stroke-linecap="round" stroke-linejoin="round"/>
<path id="Vector_15" d="M20.6928 43.047H33.6334" stroke="#211E1C" stroke-width="2" stroke-linecap="round" stroke-linejoin="round"/>
<path id="Vector_16" d="M20.6928 53.1039H29.6517" stroke="#211E1C" stroke-width="2" stroke-linecap="round" stroke-linejoin="round"/>
<path id="Vector_17" d="M20.6928 57.931H29.6517" stroke="#211E1C" stroke-width="2" stroke-linecap="round" stroke-linejoin="round"/>
</g>
</svg>
