<svg width="59" height="62" viewBox="0 0 59 62" fill="none" xmlns="http://www.w3.org/2000/svg">
<g id="Group 20">
<path id="Vector" d="M33.7849 9.37584L38.9084 4.27365C38.9084 4.27365 37.0539 1.78458 33.9236 2.84904C33.0656 3.14117 31.8501 3.39528 31.3076 2.67297C29.5816 0.365976 24.3255 0.520042 22.5996 2.67297C22.035 3.37727 20.8416 3.14117 19.9836 2.84904C16.8533 1.78458 14.9988 4.27365 14.9988 4.27365L20.1223 9.37584" stroke="#211E1C" stroke-width="2" stroke-linecap="round" stroke-linejoin="round"/>
<path id="Vector_2" d="M33.4838 9.776H20.4239C19.4252 9.776 18.6156 10.5822 18.6156 11.5768C18.6156 12.5713 19.4252 13.3775 20.4239 13.3775H33.4838C34.4825 13.3775 35.2921 12.5713 35.2921 11.5768C35.2921 10.5822 34.4825 9.776 33.4838 9.776Z" stroke="#211E1C" stroke-width="2" stroke-linecap="round" stroke-linejoin="round"/>
<path id="Vector_3" d="M45.5008 29.5084C51.1427 38.1422 55.3078 46.984 51.6691 53.1966C51.6691 53.1966 47.4497 61 39.4129 61H14.0968C6.05995 61 2.24245 53.1966 2.24245 53.1966C-4.7898 41.1915 20.3254 13.3795 20.3254 13.3795" stroke="#211E1C" stroke-width="2" stroke-linecap="round" stroke-linejoin="round"/>
<path id="Vector_4" d="M33.5842 13.3774C33.5842 13.3774 35.1657 15.1742 37.8627 18.5977" stroke="#211E1C" stroke-width="2" stroke-linecap="round" stroke-linejoin="round"/>
<path id="Vector_5" d="M35.7019 30.3849L30.9682 46.7819L27.0562 35.5091L23.1463 46.7819L18.4126 30.3849" stroke="#211E1C" stroke-width="2" stroke-linecap="round" stroke-linejoin="round"/>
<path id="Vector_6" d="M15.9432 37.3539H37.9662" stroke="#211E1C" stroke-width="2" stroke-linecap="round" stroke-linejoin="round"/>
<path id="Vector_7" d="M15.9432 40.8395H37.9662" stroke="#211E1C" stroke-width="2" stroke-linecap="round" stroke-linejoin="round"/>
<path id="Vector_8" d="M47.9541 29.5886C53.5024 29.5886 58.0002 25.1095 58.0002 19.5843C58.0002 14.059 53.5024 9.57996 47.9541 9.57996C42.4058 9.57996 37.908 14.059 37.908 19.5843C37.908 25.1095 42.4058 29.5886 47.9541 29.5886Z" stroke="#211E1C" stroke-width="2" stroke-linecap="round" stroke-linejoin="round"/>
<path id="Vector_9" d="M43.5338 16.3828L48.0545 20.8847L51.1688 17.7834" stroke="#211E1C" stroke-width="2" stroke-linecap="round" stroke-linejoin="round"/>
<path id="Vector_10" d="M47.954 9.17973V6.57861" stroke="#211E1C" stroke-width="2" stroke-linecap="round" stroke-linejoin="round"/>
<path id="Vector_11" d="M45.543 6.17834H50.1651" stroke="#211E1C" stroke-width="2" stroke-linecap="round" stroke-linejoin="round"/>
</g>
</svg>
