<svg width="87" height="87" viewBox="0 0 87 87" fill="none" xmlns="http://www.w3.org/2000/svg">
<g clip-path="url(#clip0_640_2113)">
<circle cx="43.5" cy="43.5" r="40.5" stroke="#DFDFDF" stroke-width="6"/>
<path d="M45.9854 51.624H40.4678L39.9307 26.6484H46.5469L45.9854 51.624ZM43.251 62.3906C42.5674 62.3906 41.9326 62.2197 41.3467 61.8779C40.7607 61.5199 40.2969 61.056 39.9551 60.4863C39.6296 59.9004 39.4668 59.2656 39.4668 58.582C39.4668 57.9147 39.6296 57.2962 39.9551 56.7266C40.2969 56.1406 40.7607 55.6849 41.3467 55.3594C41.9326 55.0176 42.5674 54.8467 43.251 54.8467C43.9183 54.8467 44.5368 55.0176 45.1064 55.3594C45.6924 55.6849 46.1562 56.1406 46.498 56.7266C46.8398 57.2962 47.0107 57.9147 47.0107 58.582C47.0107 59.2656 46.8398 59.9004 46.498 60.4863C46.1562 61.056 45.6924 61.5199 45.1064 61.8779C44.5368 62.2197 43.9183 62.3906 43.251 62.3906Z" fill="#DFDFDF"/>
</g>
<defs>
<clipPath id="clip0_640_2113">
<rect width="87" height="87" fill="white"/>
</clipPath>
</defs>
</svg>
