<svg width="65" height="70" viewBox="0 0 65 70" fill="none" xmlns="http://www.w3.org/2000/svg">
<g id="Group 19">
<path id="Vector" d="M42.4108 39.4944L36.9437 59.1041L32.4274 45.6224L27.9112 59.1041L22.4441 39.4944" stroke="#211E1C" stroke-width="2" stroke-linecap="round" stroke-linejoin="round"/>
<path id="Vector_2" d="M19.5918 47.8285H45.0256" stroke="#211E1C" stroke-width="2" stroke-linecap="round" stroke-linejoin="round"/>
<path id="Vector_3" d="M19.5918 51.9956H45.0256" stroke="#211E1C" stroke-width="2" stroke-linecap="round" stroke-linejoin="round"/>
<path id="Vector_4" d="M63.2592 28.4641H1.25925V68.2964H63.2592V28.4641Z" stroke="#211E1C" stroke-width="2" stroke-linecap="round" stroke-linejoin="round"/>
<path id="Vector_5" d="M1.65524 41.7413C1.65524 41.7413 14.2335 42.1498 14.2335 28.7703" stroke="#211E1C" stroke-width="2" stroke-linecap="round" stroke-linejoin="round"/>
<path id="Vector_6" d="M14.2335 68.2961C14.2335 68.2961 14.6297 55.3251 1.65524 55.3251" stroke="#211E1C" stroke-width="2" stroke-linecap="round" stroke-linejoin="round"/>
<path id="Vector_7" d="M61.9716 55.3252C61.9716 55.3252 49.3933 54.9167 49.3933 68.2962" stroke="#211E1C" stroke-width="2" stroke-linecap="round" stroke-linejoin="round"/>
<path id="Vector_8" d="M49.3934 28.7703C49.3934 28.7703 48.9972 41.7413 61.9716 41.7413" stroke="#211E1C" stroke-width="2" stroke-linecap="round" stroke-linejoin="round"/>
<path id="Vector_9" d="M49.3933 23.3573V1.50061" stroke="#211E1C" stroke-width="2" stroke-linecap="round" stroke-linejoin="round"/>
<path id="Vector_10" d="M58.9014 11.1011L49.3934 1.29626L39.8854 11.1011" stroke="#211E1C" stroke-width="2" stroke-linecap="round" stroke-linejoin="round"/>
</g>
</svg>
