<svg width="26" height="26" viewBox="0 0 26 26" fill="none" xmlns="http://www.w3.org/2000/svg">
<path d="M13 22.3484C18.2656 22.3484 22.5343 18.1393 22.5343 12.9471C22.5343 7.75498 18.2656 3.5459 13 3.5459C7.73439 3.5459 3.46576 7.75498 3.46576 12.9471C3.46576 18.1393 7.73439 22.3484 13 22.3484Z" stroke="#FFC800" stroke-width="1.2" stroke-linecap="round" stroke-linejoin="round"/>
<path d="M13 24.8322C19.6274 24.8322 25 19.5346 25 12.9996C25 6.46463 19.6274 1.16699 13 1.16699C6.37258 1.16699 1 6.46463 1 12.9996C1 19.5346 6.37258 24.8322 13 24.8322Z" stroke="#FFC800" stroke-width="1.2" stroke-linecap="round" stroke-linejoin="round"/>
<path d="M17.6575 9.16309L15.137 17.8079L13.0548 11.8646L10.9726 17.8079L8.45203 9.16309" stroke="#FFC800" stroke-width="1.2" stroke-linecap="round" stroke-linejoin="round"/>
<path d="M7.1369 12.8369H18.8629" stroke="#FFC800" stroke-width="1.2" stroke-linecap="round" stroke-linejoin="round"/>
<path d="M7.1369 14.6748H18.8629" stroke="#FFC800" stroke-width="1.2" stroke-linecap="round" stroke-linejoin="round"/>
</svg>
