<svg width="19" height="19" viewBox="0 0 19 19" fill="none" xmlns="http://www.w3.org/2000/svg">
<circle cx="9.5" cy="9.5" r="8.5" stroke="#C3C2C2" stroke-width="2"/>
<path d="M8.84766 7.57617H10.584V15H8.84766V7.57617ZM9.70898 6.5166C9.53125 6.5166 9.36491 6.47559 9.20996 6.39355C9.05501 6.30697 8.93197 6.19076 8.84082 6.04492C8.74967 5.89909 8.7041 5.74186 8.7041 5.57324C8.7041 5.40007 8.74967 5.24056 8.84082 5.09473C8.93197 4.94889 9.05501 4.83496 9.20996 4.75293C9.36491 4.6709 9.53125 4.62988 9.70898 4.62988C9.89583 4.62988 10.0667 4.6709 10.2217 4.75293C10.3766 4.83496 10.4997 4.94889 10.5908 5.09473C10.682 5.24056 10.7275 5.40007 10.7275 5.57324C10.7275 5.74186 10.682 5.89909 10.5908 6.04492C10.4997 6.19076 10.3766 6.30697 10.2217 6.39355C10.0667 6.47559 9.89583 6.5166 9.70898 6.5166Z" fill="#C3C2C2"/>
</svg>
