<svg width="60" height="69" viewBox="0 0 60 69" fill="none" xmlns="http://www.w3.org/2000/svg">
<g id="Group 22">
<path id="Vector" d="M29.5801 67.037C14.5273 67.037 2.20003 50.6491 1.48151 34.5365V11.5189C1.48151 10.504 2.14784 9.60676 3.12327 9.30568L29.9815 1.03699L56.8397 9.30568C57.8152 9.60676 58.4815 10.504 58.4815 11.5189V34.5365C57.763 50.6491 44.6329 67.037 29.5801 67.037Z" stroke="#211E1C" stroke-width="2" stroke-miterlimit="10"/>
<path id="Vector_2" d="M29.8049 56.1702C19.4144 56.1702 10.9045 44.8569 10.4068 33.7349V17.8455C10.4068 17.1437 10.8664 16.5256 11.5408 16.3182L30.0818 10.6117L48.6229 16.3182C49.2973 16.5256 49.7569 17.1457 49.7569 17.8455V33.7349C49.2611 44.8569 40.1973 56.1702 29.8049 56.1702Z" stroke="#211E1C" stroke-width="2" stroke-miterlimit="10"/>
<path id="Vector_3" d="M21.2508 31.8446L27.4726 37.6269L38.7121 27.2587" stroke="#211E1C" stroke-width="2" stroke-linecap="round" stroke-linejoin="round"/>
</g>
</svg>
