<svg width="72" height="72" viewBox="0 0 72 72" fill="none" xmlns="http://www.w3.org/2000/svg">
<g id="Group 16">
<path id="Vector" d="M24.6331 42.5116C34.7604 42.5116 42.9702 34.3718 42.9702 24.3308C42.9702 14.2898 34.7604 6.15002 24.6331 6.15002C14.5058 6.15002 6.29602 14.2898 6.29602 24.3308C6.29602 34.3718 14.5058 42.5116 24.6331 42.5116Z" stroke="#211E1C" stroke-width="2" stroke-linecap="round" stroke-linejoin="round"/>
<path id="Vector_2" d="M24.6333 47.3175C37.3788 47.3175 47.711 37.0734 47.711 24.4365C47.711 11.7997 37.3788 1.55554 24.6333 1.55554C11.8878 1.55554 1.55554 11.7997 1.55554 24.4365C1.55554 37.0734 11.8878 47.3175 24.6333 47.3175Z" stroke="#211E1C" stroke-width="2" stroke-linecap="round" stroke-linejoin="round"/>
<path id="Vector_3" d="M33.5896 17.0183L28.7424 33.7354L24.7379 22.241L20.7334 33.7354L15.8861 17.0183" stroke="#211E1C" stroke-width="2" stroke-linecap="round" stroke-linejoin="round"/>
<path id="Vector_4" d="M13.3578 24.1216H35.9086" stroke="#211E1C" stroke-width="2" stroke-linecap="round" stroke-linejoin="round"/>
<path id="Vector_5" d="M13.3578 27.6749H35.9086" stroke="#211E1C" stroke-width="2" stroke-linecap="round" stroke-linejoin="round"/>
<path id="Vector_6" d="M38.4649 43.5906L43.1794 38.9163L47.7129 43.4111L42.9984 48.0854C42.9984 48.0854 38.3483 43.4749 38.4649 43.5906Z" stroke="#211E1C" stroke-width="2" stroke-linecap="round" stroke-linejoin="round"/>
<path id="Vector_7" d="M46.2611 53.8365L53.6949 46.4661L58.2283 50.9609L50.7946 58.3313C50.7946 58.3313 46.1444 53.7208 46.2611 53.8365Z" stroke="#211E1C" stroke-width="2" stroke-linecap="round" stroke-linejoin="round"/>
<path id="Vector_8" d="M41.5545 49.5311L49.3504 41.8018L70.5556 62.8262L62.7597 70.5556C62.7597 70.5556 41.0054 48.9867 41.5545 49.5311Z" stroke="#211E1C" stroke-width="2" stroke-linecap="round" stroke-linejoin="round"/>
</g>
</svg>
