<svg width="382" height="46" viewBox="0 0 382 46" fill="none" xmlns="http://www.w3.org/2000/svg">
<rect width="382" height="46" rx="6" fill="#FEE500"/>
<path d="M123.339 17.4458C123.339 18.8521 123.163 20.1313 122.812 21.2837C122.465 22.436 121.852 23.5078 120.973 24.499C120.099 25.4902 118.893 26.3691 117.355 27.1357L116.586 26.0737C117.938 25.4146 119.01 24.6626 119.801 23.8179C120.597 22.9683 121.161 22.0405 121.493 21.0347C121.825 20.0288 121.991 18.8887 121.991 17.6143V17.4458H123.339ZM122.812 18.5811H117.348V17.4458H122.812V18.5811ZM116.879 22.2358L116.674 21.0347L121.867 20.6978V21.7671L116.879 22.2358ZM126.745 29.2305H125.36V16.1128H126.745V29.2305ZM128.781 22.5142H126.386V21.3569H128.781V22.5142ZM136.303 17.4458C136.303 18.8521 136.127 20.1313 135.775 21.2837C135.429 22.436 134.816 23.5078 133.937 24.499C133.063 25.4902 131.857 26.3691 130.319 27.1357L129.55 26.0737C130.902 25.4146 131.974 24.6626 132.765 23.8179C133.561 22.9683 134.125 22.0405 134.457 21.0347C134.789 20.0288 134.955 18.8887 134.955 17.6143V17.4458H136.303ZM135.775 18.5811H130.312V17.4458H135.775V18.5811ZM129.843 22.2358L129.638 21.0347L134.831 20.6978V21.7671L129.843 22.2358ZM139.708 29.2305H138.324V16.1128H139.708V29.2305ZM141.745 22.5142H139.35V21.3569H141.745V22.5142ZM149.105 26.7109H147.743V23.5103H149.105V26.7109ZM148.432 16.9111C149.359 16.9111 150.192 17.0576 150.929 17.3506C151.667 17.6387 152.24 18.0488 152.65 18.5811C153.065 19.1084 153.273 19.7163 153.273 20.4048C153.273 21.103 153.065 21.7158 152.65 22.2432C152.24 22.7705 151.667 23.1807 150.929 23.4736C150.192 23.7617 149.359 23.9058 148.432 23.9058C147.499 23.9058 146.664 23.7617 145.927 23.4736C145.194 23.1807 144.621 22.7705 144.206 22.2432C143.791 21.7158 143.583 21.103 143.583 20.4048C143.583 19.7163 143.791 19.1084 144.206 18.5811C144.621 18.0488 145.194 17.6387 145.927 17.3506C146.664 17.0576 147.499 16.9111 148.432 16.9111ZM148.432 18.0391C147.763 18.0391 147.162 18.1367 146.63 18.332C146.098 18.5273 145.683 18.8057 145.385 19.167C145.092 19.5234 144.945 19.936 144.945 20.4048C144.945 20.8784 145.092 21.2959 145.385 21.6572C145.683 22.0186 146.095 22.2969 146.623 22.4922C147.15 22.6875 147.753 22.7876 148.432 22.7925C149.11 22.7876 149.711 22.6875 150.233 22.4922C150.761 22.2969 151.173 22.0186 151.471 21.6572C151.769 21.2959 151.918 20.8784 151.918 20.4048C151.918 19.936 151.769 19.5234 151.471 19.167C151.173 18.8057 150.761 18.5273 150.233 18.332C149.706 18.1367 149.105 18.0391 148.432 18.0391ZM154.459 27.6045H142.448V26.4546H154.459V27.6045ZM167.064 20.8516H164.201V19.709H167.064V20.8516ZM167.042 24.1328H164.113V22.9976H167.042V24.1328ZM170.353 29.2378H169.035V16.1128H170.353V29.2378ZM167.672 28.6079H166.347V16.4497H167.672V28.6079ZM164.75 17.7534C164.75 18.9692 164.584 20.1021 164.252 21.1519C163.92 22.1968 163.39 23.166 162.663 24.0596C161.94 24.9531 160.995 25.7466 159.828 26.4399L158.993 25.4438C160.009 24.8433 160.841 24.167 161.491 23.415C162.145 22.6582 162.626 21.833 162.934 20.9395C163.246 20.041 163.402 19.0669 163.402 18.0171V17.7534H164.75ZM163.915 18.8887H159.645V17.7534H163.915V18.8887ZM181.984 20.6025H179.149V19.46H181.984V20.6025ZM182.98 23.9277H181.588V16.1128H182.98V23.9277ZM178.578 24.3013C179.501 24.3013 180.294 24.3989 180.958 24.5942C181.627 24.7896 182.138 25.0728 182.489 25.4438C182.846 25.8101 183.024 26.252 183.024 26.7695C183.024 27.2871 182.846 27.729 182.489 28.0952C182.138 28.4663 181.627 28.7495 180.958 28.9448C180.294 29.1401 179.501 29.2402 178.578 29.2451C177.665 29.2402 176.876 29.1401 176.212 28.9448C175.548 28.7495 175.038 28.4663 174.682 28.0952C174.325 27.729 174.147 27.2871 174.147 26.7695C174.147 26.252 174.325 25.8101 174.682 25.4438C175.038 25.0728 175.548 24.7896 176.212 24.5942C176.876 24.3989 177.665 24.3013 178.578 24.3013ZM178.578 25.3706C177.948 25.3706 177.401 25.4268 176.938 25.5391C176.479 25.6465 176.127 25.8052 175.883 26.0151C175.644 26.2251 175.524 26.4766 175.524 26.7695C175.524 27.0527 175.644 27.2993 175.883 27.5093C176.127 27.7192 176.479 27.8804 176.938 27.9927C177.401 28.1001 177.948 28.1538 178.578 28.1538C179.223 28.1538 179.772 28.1001 180.226 27.9927C180.685 27.8804 181.034 27.7192 181.273 27.5093C181.518 27.2993 181.64 27.0527 181.64 26.7695C181.64 26.4766 181.518 26.2251 181.273 26.0151C181.034 25.8052 180.685 25.6465 180.226 25.5391C179.772 25.4268 179.223 25.3706 178.578 25.3706ZM176.469 18.4565C176.469 19.2622 176.317 20.0239 176.015 20.7417C175.717 21.4595 175.29 22.0894 174.733 22.6313C174.176 23.1685 173.524 23.5762 172.777 23.8545L172.052 22.7412C172.716 22.5068 173.295 22.1675 173.788 21.7231C174.286 21.2788 174.667 20.7734 174.931 20.207C175.194 19.6357 175.326 19.0522 175.326 18.4565V17.4385H176.469V18.4565ZM176.732 18.4419C176.732 18.9937 176.859 19.5308 177.113 20.0532C177.367 20.5708 177.733 21.0347 178.212 21.4448C178.69 21.8501 179.252 22.165 179.896 22.3896L179.186 23.4956C178.449 23.2368 177.812 22.8535 177.274 22.3457C176.737 21.8379 176.325 21.2471 176.037 20.5732C175.749 19.8945 175.604 19.1841 175.604 18.4419V17.4385H176.732V18.4419ZM179.56 18.1636H172.47V17.0137H179.56V18.1636ZM190.985 16.9111C191.903 16.9111 192.729 17.0649 193.461 17.3726C194.198 17.6753 194.777 18.105 195.197 18.6616C195.617 19.2134 195.827 19.8481 195.827 20.5659C195.827 21.2886 195.617 21.9307 195.197 22.4922C194.777 23.0488 194.198 23.4785 193.461 23.7812C192.729 24.0791 191.903 24.228 190.985 24.228C190.072 24.228 189.247 24.0791 188.51 23.7812C187.777 23.4785 187.199 23.0488 186.774 22.4922C186.349 21.9307 186.137 21.2886 186.137 20.5659C186.137 19.8481 186.349 19.2109 186.774 18.6543C187.199 18.0977 187.777 17.668 188.51 17.3652C189.247 17.0625 190.072 16.9111 190.985 16.9111ZM190.985 18.0391C190.316 18.0293 189.716 18.1318 189.184 18.3467C188.651 18.5566 188.234 18.8569 187.931 19.2476C187.628 19.6333 187.477 20.0728 187.477 20.5659C187.477 21.0688 187.628 21.5132 187.931 21.8989C188.234 22.2798 188.651 22.5752 189.184 22.7852C189.716 22.9951 190.316 23.1001 190.985 23.1001C191.649 23.1001 192.245 22.9951 192.772 22.7852C193.3 22.5752 193.715 22.2798 194.018 21.8989C194.32 21.5132 194.472 21.0688 194.472 20.5659C194.472 20.0728 194.32 19.6333 194.018 19.2476C193.715 18.8569 193.3 18.5566 192.772 18.3467C192.245 18.1318 191.649 18.0293 190.985 18.0391ZM197.013 27.5459H185.001V26.4033H197.013V27.5459ZM209.977 27.6704H197.965V26.5205H209.977V27.6704ZM204.623 27.0112H203.261V23.8105H204.623V27.0112ZM208.505 21.1445H200.814V23.6641H199.43V20.0312H207.135V18.1855H199.408V17.0503H208.505V21.1445ZM208.812 24.2061H199.43V23.0635H208.812V24.2061ZM222.582 20.8516H219.718V19.709H222.582V20.8516ZM222.56 24.1328H219.63V22.9976H222.56V24.1328ZM225.871 29.2378H224.552V16.1128H225.871V29.2378ZM223.19 28.6079H221.864V16.4497H223.19V28.6079ZM220.268 17.7534C220.268 18.9692 220.102 20.1021 219.77 21.1519C219.438 22.1968 218.908 23.166 218.18 24.0596C217.458 24.9531 216.513 25.7466 215.346 26.4399L214.511 25.4438C215.526 24.8433 216.359 24.167 217.008 23.415C217.663 22.6582 218.144 21.833 218.451 20.9395C218.764 20.041 218.92 19.0669 218.92 18.0171V17.7534H220.268ZM219.433 18.8887H215.163V17.7534H219.433V18.8887ZM239.552 23.7739H227.555V22.6387H239.552V23.7739ZM234.213 23.1367H232.843V20.7197H234.213V23.1367ZM234.008 16.8818C234.008 17.6484 233.773 18.3491 233.305 18.9839C232.841 19.6187 232.208 20.1484 231.408 20.5732C230.612 20.998 229.728 21.291 228.756 21.4521L228.244 20.3462C229.083 20.2339 229.853 20.0068 230.551 19.665C231.254 19.3232 231.808 18.9082 232.213 18.4199C232.619 17.9316 232.821 17.4189 232.821 16.8818V16.3252H234.008V16.8818ZM234.228 16.8818C234.228 17.4238 234.433 17.939 234.843 18.4272C235.253 18.9155 235.81 19.3306 236.513 19.6724C237.216 20.0093 237.987 20.2339 238.827 20.3462L238.271 21.4521C237.309 21.291 236.43 21.0005 235.634 20.5806C234.843 20.1558 234.213 19.6235 233.744 18.9839C233.28 18.3442 233.048 17.6436 233.048 16.8818V16.3252H234.228V16.8818ZM238.051 29.2378H236.659V26.0371H228.881V24.9385H238.051V29.2378ZM250.744 29.2378H249.367V16.1128H250.744V29.2378ZM252.86 22.5874H250.429V21.4375H252.86V22.5874ZM248.224 19.3062H240.446V18.1709H248.224V19.3062ZM244.394 20.2803C245.019 20.2803 245.578 20.4097 246.071 20.6685C246.569 20.9272 246.957 21.2886 247.235 21.7524C247.519 22.2163 247.66 22.7412 247.66 23.3271C247.66 23.918 247.519 24.4453 247.235 24.9092C246.957 25.373 246.569 25.7344 246.071 25.9932C245.578 26.252 245.019 26.3813 244.394 26.3813C243.764 26.3813 243.202 26.252 242.709 25.9932C242.216 25.7344 241.828 25.373 241.544 24.9092C241.266 24.4453 241.127 23.918 241.127 23.3271C241.127 22.7412 241.266 22.2163 241.544 21.7524C241.828 21.2886 242.216 20.9272 242.709 20.6685C243.202 20.4097 243.764 20.2803 244.394 20.2803ZM244.394 21.4302C244.022 21.4302 243.69 21.5107 243.397 21.6719C243.104 21.8281 242.873 22.0503 242.702 22.3384C242.536 22.6265 242.453 22.9561 242.453 23.3271C242.453 23.7031 242.536 24.0327 242.702 24.3159C242.873 24.5991 243.104 24.8213 243.397 24.9824C243.69 25.1387 244.022 25.2168 244.394 25.2168C244.765 25.2168 245.097 25.1387 245.39 24.9824C245.683 24.8213 245.912 24.5991 246.078 24.3159C246.244 24.0327 246.327 23.7031 246.327 23.3271C246.327 22.9561 246.244 22.6265 246.078 22.3384C245.912 22.0503 245.683 21.8281 245.39 21.6719C245.097 21.5107 244.765 21.4302 244.394 21.4302ZM245.075 18.6543H243.69V16.2886H245.075V18.6543ZM264.396 29.2378H262.99V16.1128H264.396V29.2378ZM260.5 17.5264C260.5 18.8643 260.292 20.1021 259.877 21.2397C259.467 22.3726 258.808 23.4175 257.899 24.3745C256.991 25.3267 255.81 26.1519 254.354 26.8501L253.607 25.7222C254.872 25.1265 255.91 24.4331 256.72 23.6421C257.536 22.8511 258.139 21.9673 258.529 20.9907C258.92 20.0142 259.115 18.9351 259.115 17.7534V17.5264H260.5ZM259.716 18.6396H254.245V17.5264H259.716V18.6396Z" fill="black" fill-opacity="0.85"/>
<g opacity="0.9">
<path fill-rule="evenodd" clip-rule="evenodd" d="M23.6102 14.6933C18.3638 14.6933 14.1102 18.0283 14.1102 22.1422C14.1102 24.6996 15.7554 26.9558 18.2604 28.2971L17.2065 32.2043C17.1138 32.5505 17.5026 32.8259 17.8014 32.6256L22.4211 29.5303C22.8107 29.5682 23.2073 29.5904 23.6102 29.5904C28.8567 29.5904 33.1102 26.2555 33.1102 22.1422C33.1102 18.029 28.8574 14.6933 23.6102 14.6933Z" fill="black"/>
</g>
</svg>
