<svg width="822" height="285" viewBox="0 0 822 285" fill="none" xmlns="http://www.w3.org/2000/svg">
<rect x="499" y="1" width="322" height="268" fill="#FAFAFA"/>
<rect x="379" y="1" width="120" height="268" fill="white"/>
<rect x="22" y="1" width="357" height="268" fill="#FAFAFA"/>
<path d="M379 269V1" stroke="#EAEAF1" stroke-linecap="round"/>
<path d="M499 269V1" stroke="#EAEAF1" stroke-linecap="round"/>
<path d="M821 269H22V1" stroke="#F2F0F0" stroke-width="2" stroke-linecap="round"/>
<path d="M34 231.501C76.3151 205.974 267 118.001 298.947 103.562C322.227 93.0408 371.5 74.5009 447.416 77.1555C481 77.1555 551 82.501 594.5 95.0009C668.892 116.378 811.918 174.332 820 177.501" stroke="#334195" stroke-width="2" stroke-linecap="round"/>
<path d="M33 244.5C46.1847 241.686 166.5 210 268.5 145.5C315.455 115.808 387.408 60 463 60C506.75 60 579 63 635.5 76.5C707.88 93.7943 791.873 124.842 820 138.5" stroke="#FFC800" stroke-width="2" stroke-linecap="round"/>
<path d="M6.96289 4.34473H1.28906V3.4707H6.96289V4.34473ZM8.36426 7.53809H0.297852V6.65918H8.36426V7.53809ZM7.37305 4.15918C7.37305 4.66699 7.35677 5.12598 7.32422 5.53613C7.29492 5.94303 7.22005 6.4069 7.09961 6.92773L6.00586 6.88867C6.09701 6.52734 6.16211 6.1888 6.20117 5.87305C6.24023 5.55729 6.26465 5.27897 6.27441 5.03809C6.28418 4.79395 6.28906 4.50098 6.28906 4.15918V3.4707H7.37305V4.15918ZM7.36328 11.7568H1.25977V8.56836H7.36328V11.7568ZM2.3291 10.8828H6.28418V9.41797H2.3291V10.8828ZM11.0156 3.58301C11.403 3.58301 11.7513 3.67253 12.0605 3.85156C12.3698 4.0306 12.6123 4.28288 12.7881 4.6084C12.9639 4.93392 13.0518 5.30339 13.0518 5.7168C13.0518 6.12695 12.9639 6.49154 12.7881 6.81055C12.6123 7.12956 12.3698 7.38021 12.0605 7.5625C11.7513 7.74154 11.403 7.83105 11.0156 7.83105C10.625 7.83105 10.2751 7.74154 9.96582 7.5625C9.65983 7.38021 9.42057 7.12956 9.24805 6.81055C9.07878 6.49154 8.99414 6.12695 8.99414 5.7168C8.99414 5.30339 9.0804 4.93392 9.25293 4.6084C9.42871 4.28288 9.66797 4.0306 9.9707 3.85156C10.2767 3.67253 10.625 3.58301 11.0156 3.58301ZM11.0156 4.51074C10.8138 4.51074 10.6331 4.5612 10.4736 4.66211C10.3141 4.75977 10.1904 4.89811 10.1025 5.07715C10.0146 5.25618 9.9707 5.4694 9.9707 5.7168C9.9707 5.95443 10.0146 6.16439 10.1025 6.34668C10.1904 6.52897 10.3141 6.67057 10.4736 6.77148C10.6364 6.8724 10.8171 6.92285 11.0156 6.92285C11.2174 6.92285 11.3981 6.8724 11.5576 6.77148C11.7171 6.67057 11.8408 6.52897 11.9287 6.34668C12.0166 6.16439 12.0605 5.95443 12.0605 5.7168C12.0605 5.4694 12.0166 5.25456 11.9287 5.07227C11.8408 4.88997 11.7171 4.75163 11.5576 4.65723C11.4014 4.55957 11.2207 4.51074 11.0156 4.51074ZM16.4844 8.31445H15.4492V3.05078H16.4844V8.31445ZM15.752 6.1123H14.2383V5.2334H15.752V6.1123ZM14.5801 8.26562H13.5693V3.21191H14.5801V8.26562ZM16.4844 11.8594H15.4102V9.60352H10.4395V8.73438H16.4844V11.8594Z" fill="#A3A3A3"/>
<path d="M811.516 279.338H809.929V278.444H811.516V279.338ZM810.207 283.854H809.123V275.041H810.207V283.854ZM804.685 281.364H803.601V275.896H804.685V281.364ZM804.348 280.769C805.031 280.769 805.712 280.738 806.389 280.676C807.066 280.614 807.749 280.515 808.439 280.378L808.562 281.286C807.868 281.426 807.175 281.525 806.481 281.584C805.791 281.639 805.08 281.667 804.348 281.667H803.601V280.769H804.348ZM819.279 283.884H818.181V275.041H819.279V283.884ZM814.523 275.686C814.966 275.686 815.362 275.814 815.71 276.071C816.058 276.325 816.33 276.688 816.525 277.16C816.721 277.629 816.818 278.176 816.818 278.801C816.818 279.429 816.721 279.979 816.525 280.451C816.33 280.92 816.058 281.283 815.71 281.54C815.362 281.797 814.966 281.926 814.523 281.926C814.077 281.926 813.68 281.797 813.332 281.54C812.984 281.283 812.71 280.92 812.512 280.451C812.316 279.979 812.219 279.429 812.219 278.801C812.219 278.176 812.316 277.629 812.512 277.16C812.71 276.688 812.984 276.325 813.332 276.071C813.68 275.814 814.077 275.686 814.523 275.686ZM814.523 276.662C814.276 276.659 814.056 276.743 813.864 276.916C813.675 277.085 813.529 277.331 813.425 277.653C813.321 277.976 813.269 278.358 813.269 278.801C813.269 279.243 813.321 279.628 813.425 279.953C813.529 280.275 813.675 280.521 813.864 280.69C814.056 280.856 814.276 280.939 814.523 280.939C814.771 280.939 814.989 280.856 815.178 280.69C815.367 280.521 815.513 280.275 815.617 279.953C815.721 279.628 815.773 279.243 815.773 278.801C815.773 278.358 815.721 277.976 815.617 277.653C815.513 277.331 815.367 277.085 815.178 276.916C814.992 276.743 814.774 276.659 814.523 276.662Z" fill="#A3A3A3"/>
<path d="M22.5859 282.077L25.0811 279.675C25.3545 279.401 25.5661 279.178 25.7158 279.006C25.8656 278.83 25.9795 278.656 26.0576 278.483C26.1357 278.311 26.1748 278.129 26.1748 277.937C26.1748 277.725 26.1211 277.538 26.0137 277.375C25.9062 277.212 25.7614 277.087 25.5791 276.999C25.3968 276.908 25.1885 276.862 24.9541 276.862C24.7197 276.862 24.5114 276.911 24.3291 277.009C24.1468 277.103 24.0068 277.24 23.9092 277.419C23.8115 277.598 23.7627 277.805 23.7627 278.039H22.5566C22.5566 277.6 22.6592 277.214 22.8643 276.882C23.0693 276.547 23.3542 276.288 23.7188 276.105C24.0866 275.923 24.5049 275.832 24.9736 275.832C25.4489 275.832 25.8688 275.92 26.2334 276.096C26.598 276.271 26.8812 276.514 27.083 276.823C27.2881 277.132 27.3906 277.484 27.3906 277.878C27.3906 278.151 27.3385 278.415 27.2344 278.669C27.1302 278.923 26.9512 279.203 26.6973 279.509C26.4466 279.815 26.0869 280.189 25.6182 280.632L24.3584 281.882V281.936H27.498V283H22.5908L22.5859 282.077ZM31.1211 283.098C30.6589 283.098 30.2389 283.011 29.8613 282.839C29.487 282.663 29.1924 282.422 28.9775 282.116C28.7627 281.81 28.6471 281.465 28.6309 281.081H29.8662C29.8857 281.27 29.9525 281.439 30.0664 281.589C30.1803 281.739 30.3301 281.856 30.5156 281.94C30.7012 282.025 30.903 282.067 31.1211 282.067C31.3815 282.067 31.6143 282.009 31.8193 281.892C32.0244 281.774 32.1855 281.613 32.3027 281.408C32.4199 281.203 32.4785 280.97 32.4785 280.71C32.4785 280.443 32.4183 280.205 32.2979 279.997C32.1807 279.789 32.0163 279.626 31.8047 279.509C31.5931 279.388 31.3522 279.328 31.082 279.328C30.8021 279.325 30.5645 279.372 30.3691 279.47C30.1738 279.567 30.0208 279.722 29.9102 279.934H28.7334L29.1582 275.93H33.333V276.994H30.208L29.9932 278.874H30.0518C30.195 278.715 30.3887 278.584 30.6328 278.483C30.8802 278.382 31.1455 278.332 31.4287 278.332C31.8617 278.332 32.2523 278.433 32.6006 278.635C32.9489 278.833 33.2207 279.112 33.416 279.47C33.6146 279.825 33.7139 280.227 33.7139 280.676C33.7139 281.141 33.6032 281.558 33.3818 281.926C33.1605 282.294 32.8529 282.582 32.459 282.79C32.0684 282.995 31.6224 283.098 31.1211 283.098ZM39.5732 278.977H37.9912V278.083H39.5732V278.977ZM37.0342 277.404C37.0342 278.068 36.9593 278.703 36.8096 279.309C36.6631 279.911 36.4385 280.451 36.1357 280.93C35.833 281.405 35.4603 281.778 35.0176 282.048L34.3486 281.242C34.7588 280.992 35.1022 280.663 35.3789 280.256C35.6556 279.849 35.8607 279.403 35.9941 278.918C36.1309 278.433 36.1992 277.928 36.1992 277.404V275.827H37.0342V277.404ZM37.249 277.36C37.249 277.865 37.3076 278.347 37.4248 278.806C37.5452 279.261 37.7308 279.683 37.9814 280.07C38.2354 280.458 38.5527 280.772 38.9336 281.013L38.3379 281.853C37.8984 281.589 37.5371 281.223 37.2539 280.754C36.9707 280.285 36.7624 279.764 36.6289 279.191C36.4954 278.618 36.4287 278.008 36.4287 277.36V275.827H37.249V277.36ZM42.1074 283.859H41.0625V275.041H42.1074V283.859ZM40.2666 283.444H39.251V275.192H40.2666V283.444Z" fill="#666666"/>
<path d="M180.7 257.884H179.606V249.041H180.7V257.884ZM179.89 253.05H177.912V252.166H179.89V253.05ZM176.296 251.39C176.296 252.08 176.197 252.742 175.998 253.377C175.803 254.008 175.518 254.572 175.144 255.066C174.772 255.558 174.333 255.932 173.825 256.189L173.176 255.335C173.635 255.117 174.034 254.803 174.372 254.393C174.714 253.979 174.974 253.512 175.153 252.991C175.336 252.47 175.427 251.937 175.427 251.39V250.379H176.296V251.39ZM176.53 251.39C176.53 251.907 176.62 252.415 176.799 252.913C176.981 253.411 177.242 253.859 177.58 254.256C177.922 254.65 178.322 254.948 178.781 255.149L178.142 256.009C177.631 255.765 177.188 255.407 176.813 254.935C176.442 254.459 176.159 253.917 175.964 253.309C175.772 252.697 175.676 252.057 175.676 251.39V250.379H176.53V251.39ZM178.43 250.794H173.537V249.915H178.43V250.794ZM186.481 255.364H185.412V254.031H186.481V255.364ZM189.978 254.285H181.94V253.416H189.978V254.285ZM188.996 257.845H187.907V255.999H182.829V255.13H188.996V257.845ZM186.481 250.311H185.412V249.031H186.481V250.311ZM186.301 250.564C186.301 251.023 186.153 251.429 185.856 251.78C185.56 252.129 185.139 252.41 184.592 252.625C184.045 252.84 183.4 252.98 182.658 253.045L182.321 252.229C182.966 252.177 183.514 252.073 183.967 251.917C184.423 251.757 184.766 251.562 184.997 251.331C185.228 251.097 185.344 250.841 185.344 250.564V250.384H186.301V250.564ZM186.555 250.564C186.555 250.841 186.669 251.097 186.896 251.331C187.124 251.562 187.466 251.757 187.922 251.917C188.381 252.073 188.933 252.177 189.577 252.229L189.235 253.045C188.493 252.98 187.849 252.84 187.302 252.625C186.758 252.41 186.338 252.129 186.042 251.78C185.746 251.429 185.598 251.023 185.598 250.564V250.384H186.555V250.564ZM189.187 250.721H182.731V249.871H189.187V250.721ZM197.492 257.854H196.408V249.041H197.492V257.854ZM198.801 253.392H197.214V252.493H198.801V253.392ZM195.163 249.964C195.163 250.862 195.028 251.699 194.758 252.474C194.491 253.245 194.06 253.955 193.464 254.603C192.868 255.247 192.097 255.805 191.149 256.277L190.539 255.438C191.337 255.034 191.997 254.573 192.521 254.056C193.049 253.538 193.443 252.957 193.703 252.312C193.964 251.665 194.094 250.945 194.094 250.154V249.964H195.163ZM194.646 250.857H190.998V249.964H194.646V250.857ZM206.359 252.215H200.266V251.336H206.359V252.215ZM201.35 251.736H200.266V249.192H201.35V251.736ZM207.277 253.948H199.226V253.064H207.277V253.948ZM203.234 254.583C203.872 254.583 204.419 254.646 204.875 254.773C205.334 254.897 205.684 255.081 205.925 255.325C206.169 255.569 206.291 255.862 206.291 256.204C206.291 256.546 206.169 256.839 205.925 257.083C205.684 257.327 205.336 257.513 204.88 257.64C204.424 257.767 203.876 257.83 203.234 257.83C202.593 257.83 202.043 257.767 201.584 257.64C201.125 257.513 200.772 257.327 200.524 257.083C200.28 256.839 200.158 256.546 200.158 256.204C200.158 255.862 200.28 255.569 200.524 255.325C200.772 255.081 201.125 254.897 201.584 254.773C202.046 254.646 202.596 254.583 203.234 254.583ZM203.234 255.433C202.801 255.433 202.438 255.46 202.146 255.516C201.853 255.571 201.633 255.657 201.486 255.774C201.34 255.888 201.267 256.032 201.267 256.204C201.267 256.373 201.341 256.518 201.491 256.639C201.641 256.756 201.862 256.845 202.155 256.907C202.448 256.969 202.808 257 203.234 257C203.654 257 204.012 256.969 204.309 256.907C204.605 256.845 204.828 256.756 204.978 256.639C205.127 256.518 205.202 256.373 205.202 256.204C205.202 256.032 205.127 255.888 204.978 255.774C204.828 255.657 204.606 255.571 204.313 255.516C204.024 255.46 203.664 255.433 203.234 255.433ZM213.381 251.16C213.381 251.896 213.28 252.591 213.078 253.245C212.88 253.896 212.588 254.469 212.204 254.964C211.82 255.459 211.358 255.835 210.817 256.092L210.153 255.184C210.632 254.972 211.047 254.661 211.398 254.251C211.75 253.838 212.019 253.364 212.204 252.83C212.393 252.293 212.487 251.736 212.487 251.16V249.749H213.381V251.16ZM213.581 251.16C213.581 251.707 213.672 252.236 213.854 252.747C214.037 253.258 214.3 253.714 214.646 254.114C214.994 254.515 215.401 254.816 215.866 255.018L215.222 255.887C214.701 255.643 214.248 255.283 213.864 254.808C213.48 254.329 213.187 253.777 212.985 253.152C212.784 252.527 212.683 251.863 212.683 251.16V249.749H213.581V251.16ZM217.59 257.884H216.491V249.041H217.59V257.884ZM226.262 257.859H225.163V249.041H226.262V257.859ZM223.63 249.979C223.63 250.9 223.496 251.744 223.229 252.513C222.966 253.278 222.531 253.982 221.926 254.627C221.32 255.268 220.518 255.826 219.519 256.302L218.942 255.433C219.792 255.029 220.482 254.57 221.013 254.056C221.543 253.541 221.932 252.964 222.18 252.322C222.427 251.681 222.551 250.962 222.551 250.164V249.979H223.63ZM223.039 250.838H219.392V249.979H223.039V250.838Z" fill="#838387"/>
<path d="M417.7 257.884H416.606V249.041H417.7V257.884ZM416.89 253.05H414.912V252.166H416.89V253.05ZM413.296 251.39C413.296 252.08 413.197 252.742 412.998 253.377C412.803 254.008 412.518 254.572 412.144 255.066C411.772 255.558 411.333 255.932 410.825 256.189L410.176 255.335C410.635 255.117 411.034 254.803 411.372 254.393C411.714 253.979 411.974 253.512 412.153 252.991C412.336 252.47 412.427 251.937 412.427 251.39V250.379H413.296V251.39ZM413.53 251.39C413.53 251.907 413.62 252.415 413.799 252.913C413.981 253.411 414.242 253.859 414.58 254.256C414.922 254.65 415.322 254.948 415.781 255.149L415.142 256.009C414.631 255.765 414.188 255.407 413.813 254.935C413.442 254.459 413.159 253.917 412.964 253.309C412.772 252.697 412.676 252.057 412.676 251.39V250.379H413.53V251.39ZM415.43 250.794H410.537V249.915H415.43V250.794ZM423.481 255.364H422.412V254.031H423.481V255.364ZM426.978 254.285H418.94V253.416H426.978V254.285ZM425.996 257.845H424.907V255.999H419.829V255.13H425.996V257.845ZM423.481 250.311H422.412V249.031H423.481V250.311ZM423.301 250.564C423.301 251.023 423.153 251.429 422.856 251.78C422.56 252.129 422.139 252.41 421.592 252.625C421.045 252.84 420.4 252.98 419.658 253.045L419.321 252.229C419.966 252.177 420.514 252.073 420.967 251.917C421.423 251.757 421.766 251.562 421.997 251.331C422.228 251.097 422.344 250.841 422.344 250.564V250.384H423.301V250.564ZM423.555 250.564C423.555 250.841 423.669 251.097 423.896 251.331C424.124 251.562 424.466 251.757 424.922 251.917C425.381 252.073 425.933 252.177 426.577 252.229L426.235 253.045C425.493 252.98 424.849 252.84 424.302 252.625C423.758 252.41 423.338 252.129 423.042 251.78C422.746 251.429 422.598 251.023 422.598 250.564V250.384H423.555V250.564ZM426.187 250.721H419.731V249.871H426.187V250.721ZM433.096 250.413C433.096 250.937 432.996 251.43 432.798 251.893C432.599 252.352 432.31 252.75 431.929 253.089C431.551 253.427 431.099 253.683 430.571 253.855L430.015 253.001C430.48 252.864 430.877 252.664 431.206 252.4C431.535 252.133 431.784 251.829 431.953 251.487C432.126 251.146 432.212 250.787 432.212 250.413V249.803H433.096V250.413ZM433.311 250.413C433.311 250.765 433.395 251.103 433.564 251.429C433.734 251.751 433.981 252.037 434.307 252.288C434.632 252.535 435.023 252.724 435.479 252.854L434.932 253.709C434.404 253.549 433.952 253.309 433.574 252.986C433.2 252.661 432.913 252.277 432.715 251.834C432.52 251.391 432.422 250.918 432.422 250.413V249.803H433.311V250.413ZM435.171 250.433H430.312V249.568H435.171V250.433ZM437.31 253.826H436.221V249.041H437.31V253.826ZM432.544 255.12H436.226V254.212H437.31V257.757H431.475V254.212H432.544V255.12ZM436.226 256.883V255.97H432.544V256.883H436.226ZM443.154 255.013H442.085V253.455H443.154V255.013ZM446.646 253.963H438.608V253.089H446.646V253.963ZM442.617 254.7C443.255 254.7 443.802 254.762 444.258 254.886C444.717 255.006 445.067 255.185 445.308 255.423C445.552 255.66 445.674 255.947 445.674 256.282C445.674 256.614 445.552 256.897 445.308 257.132C445.067 257.366 444.717 257.545 444.258 257.669C443.802 257.793 443.255 257.854 442.617 257.854C441.976 257.854 441.426 257.793 440.967 257.669C440.508 257.545 440.155 257.366 439.907 257.132C439.663 256.897 439.541 256.614 439.541 256.282C439.541 255.947 439.663 255.66 439.907 255.423C440.151 255.185 440.503 255.006 440.962 254.886C441.424 254.762 441.976 254.7 442.617 254.7ZM442.617 255.525C442.188 255.525 441.826 255.555 441.533 255.613C441.243 255.672 441.024 255.757 440.874 255.867C440.724 255.978 440.649 256.116 440.649 256.282C440.649 256.438 440.724 256.574 440.874 256.688C441.024 256.798 441.245 256.884 441.538 256.946C441.831 257.005 442.191 257.034 442.617 257.034C443.037 257.034 443.395 257.005 443.691 256.946C443.988 256.884 444.211 256.798 444.36 256.688C444.51 256.574 444.585 256.438 444.585 256.282C444.585 256.116 444.51 255.978 444.36 255.867C444.211 255.757 443.989 255.672 443.696 255.613C443.403 255.555 443.044 255.525 442.617 255.525ZM442.847 250.076C442.847 250.525 442.703 250.936 442.417 251.307C442.134 251.674 441.729 251.979 441.201 252.22C440.677 252.461 440.063 252.617 439.36 252.688L438.994 251.834C439.577 251.775 440.086 251.66 440.522 251.487C440.962 251.315 441.299 251.105 441.533 250.857C441.768 250.607 441.885 250.346 441.885 250.076V249.832H442.847V250.076ZM443.354 250.076C443.354 250.346 443.47 250.607 443.701 250.857C443.936 251.105 444.274 251.315 444.717 251.487C445.16 251.66 445.677 251.775 446.27 251.834L445.884 252.688C445.19 252.617 444.578 252.461 444.048 252.22C443.517 251.979 443.107 251.674 442.817 251.307C442.528 250.936 442.383 250.525 442.383 250.076V249.832H443.354V250.076ZM445.923 250.296H439.336V249.432H445.923V250.296ZM452.764 251.16C452.764 251.896 452.663 252.591 452.461 253.245C452.262 253.896 451.971 254.469 451.587 254.964C451.203 255.459 450.741 255.835 450.2 256.092L449.536 255.184C450.015 254.972 450.43 254.661 450.781 254.251C451.133 253.838 451.401 253.364 451.587 252.83C451.776 252.293 451.87 251.736 451.87 251.16V249.749H452.764V251.16ZM452.964 251.16C452.964 251.707 453.055 252.236 453.237 252.747C453.42 253.258 453.683 253.714 454.028 254.114C454.377 254.515 454.784 254.816 455.249 255.018L454.604 255.887C454.084 255.643 453.631 255.283 453.247 254.808C452.863 254.329 452.57 253.777 452.368 253.152C452.166 252.527 452.065 251.863 452.065 251.16V249.749H452.964V251.16ZM456.973 257.884H455.874V249.041H456.973V257.884ZM465.645 257.859H464.546V249.041H465.645V257.859ZM463.013 249.979C463.013 250.9 462.879 251.744 462.612 252.513C462.349 253.278 461.914 253.982 461.309 254.627C460.703 255.268 459.901 255.826 458.901 256.302L458.325 255.433C459.175 255.029 459.865 254.57 460.396 254.056C460.926 253.541 461.315 252.964 461.562 252.322C461.81 251.681 461.934 250.962 461.934 250.164V249.979H463.013ZM462.422 250.838H458.774V249.979H462.422V250.838Z" fill="#838387"/>
<path d="M639.466 253.802H633.226V252.918H639.466V253.802ZM640.364 256.81H632.298V255.931H640.364V256.81ZM636.858 256.189H635.774V253.436H636.858V256.189ZM634.334 253.294H633.226V249.744H634.334V253.294ZM648.543 250.867H641.331V249.988H648.543V250.867ZM649.007 255.633H640.94V254.749H649.007V255.633ZM645.486 257.879H644.417V255.496H645.486V257.879ZM644.959 251.263C645.581 251.263 646.115 251.321 646.561 251.438C647.007 251.552 647.348 251.722 647.586 251.946C647.824 252.171 647.942 252.444 647.942 252.767C647.942 253.082 647.824 253.351 647.586 253.572C647.348 253.794 647.007 253.963 646.561 254.08C646.115 254.197 645.581 254.257 644.959 254.261C644.334 254.257 643.797 254.197 643.348 254.08C642.902 253.963 642.56 253.794 642.322 253.572C642.085 253.351 641.966 253.082 641.966 252.767C641.966 252.444 642.085 252.171 642.322 251.946C642.56 251.722 642.902 251.552 643.348 251.438C643.797 251.321 644.334 251.263 644.959 251.263ZM644.959 252.073C644.549 252.073 644.205 252.099 643.929 252.151C643.652 252.203 643.444 252.282 643.304 252.386C643.164 252.487 643.094 252.614 643.094 252.767C643.094 252.913 643.164 253.037 643.304 253.138C643.444 253.239 643.652 253.315 643.929 253.367C644.205 253.419 644.549 253.445 644.959 253.445C645.363 253.445 645.701 253.419 645.975 253.367C646.251 253.315 646.461 253.239 646.604 253.138C646.748 253.037 646.819 252.913 646.819 252.767C646.819 252.614 646.748 252.487 646.604 252.386C646.461 252.282 646.251 252.203 645.975 252.151C645.701 252.099 645.363 252.073 644.959 252.073ZM645.486 250.574H644.417V249.017H645.486V250.574ZM652.142 250.677C652.142 251.162 652.065 251.632 651.912 252.088C651.759 252.544 651.528 252.952 651.219 253.313C650.91 253.675 650.534 253.948 650.091 254.134L649.5 253.294C649.891 253.125 650.219 252.898 650.486 252.615C650.753 252.332 650.953 252.023 651.087 251.688C651.22 251.352 651.287 251.015 651.287 250.677V249.588H652.142V250.677ZM652.337 250.677C652.337 251.002 652.4 251.318 652.527 251.624C652.658 251.93 652.851 252.205 653.108 252.449C653.366 252.693 653.68 252.889 654.051 253.035L653.475 253.86C653.038 253.691 652.671 253.447 652.371 253.128C652.072 252.806 651.849 252.435 651.702 252.015C651.556 251.591 651.482 251.146 651.482 250.677V249.588H652.337V250.677ZM657.127 254.466H656.092V249.051H657.127V254.466ZM656.395 252.161H654.886V251.277H656.395V252.161ZM655.213 254.188H654.202V249.212H655.213V254.188ZM654.148 254.607C654.764 254.607 655.299 254.673 655.755 254.803C656.211 254.93 656.561 255.115 656.805 255.359C657.049 255.604 657.171 255.895 657.171 256.233C657.171 256.565 657.049 256.854 656.805 257.098C656.561 257.342 656.211 257.529 655.755 257.659C655.299 257.789 654.764 257.854 654.148 257.854C653.533 257.854 652.996 257.789 652.537 257.659C652.081 257.529 651.731 257.342 651.487 257.098C651.246 256.854 651.126 256.565 651.126 256.233C651.126 255.895 651.246 255.604 651.487 255.359C651.731 255.115 652.081 254.93 652.537 254.803C652.993 254.673 653.53 254.607 654.148 254.607ZM654.148 255.423C653.742 255.423 653.392 255.454 653.099 255.516C652.809 255.577 652.588 255.669 652.435 255.789C652.285 255.91 652.21 256.058 652.21 256.233C652.21 256.403 652.285 256.548 652.435 256.668C652.588 256.788 652.809 256.88 653.099 256.941C653.388 257.003 653.738 257.034 654.148 257.034C654.555 257.034 654.902 257.003 655.188 256.941C655.478 256.88 655.7 256.788 655.853 256.668C656.009 256.548 656.087 256.403 656.087 256.233C656.087 256.058 656.009 255.91 655.853 255.789C655.7 255.669 655.477 255.577 655.184 255.516C654.894 255.454 654.549 255.423 654.148 255.423ZM665.218 254.241H664.129V249.041H665.218V254.241ZM666.409 252.098H664.817V251.185H666.409V252.098ZM665.218 256.492H660.418V257.293H659.334V255.813H664.134V255.315H659.319V254.583H665.218V256.492ZM665.525 257.791H659.334V257.054H665.525V257.791ZM661.448 253.802H660.364V252.596H661.448V253.802ZM658.143 253.348C659.272 253.348 660.276 253.333 661.155 253.304C662.034 253.274 662.874 253.204 663.675 253.094L663.758 253.782C662.924 253.919 662.063 254.008 661.175 254.051C660.289 254.09 659.318 254.109 658.26 254.109L658.143 253.348ZM663.436 250.379H658.367V249.637H663.436V250.379ZM660.896 250.594C661.333 250.594 661.71 250.639 662.029 250.73C662.352 250.818 662.599 250.949 662.771 251.121C662.944 251.29 663.03 251.494 663.03 251.731C663.03 251.976 662.944 252.187 662.771 252.366C662.599 252.545 662.352 252.682 662.029 252.776C661.71 252.868 661.333 252.915 660.896 252.918C660.467 252.915 660.091 252.868 659.769 252.776C659.45 252.682 659.202 252.545 659.026 252.366C658.854 252.187 658.768 251.976 658.768 251.731C658.768 251.494 658.854 251.29 659.026 251.121C659.202 250.949 659.45 250.818 659.769 250.73C660.091 250.639 660.467 250.594 660.896 250.594ZM660.896 251.277C660.665 251.277 660.468 251.295 660.306 251.331C660.143 251.364 660.019 251.414 659.935 251.482C659.85 251.548 659.808 251.631 659.808 251.731C659.808 251.836 659.852 251.924 659.939 251.995C660.027 252.063 660.151 252.119 660.311 252.161C660.473 252.2 660.669 252.22 660.896 252.22C661.131 252.22 661.328 252.2 661.487 252.161C661.65 252.119 661.774 252.063 661.858 251.995C661.946 251.924 661.99 251.836 661.99 251.731C661.99 251.631 661.948 251.548 661.863 251.482C661.779 251.414 661.655 251.364 661.492 251.331C661.329 251.295 661.131 251.277 660.896 251.277ZM661.448 250.052H660.364V248.968H661.448V250.052ZM672.381 251.16C672.381 251.896 672.28 252.591 672.078 253.245C671.88 253.896 671.588 254.469 671.204 254.964C670.82 255.459 670.358 255.835 669.817 256.092L669.153 255.184C669.632 254.972 670.047 254.661 670.398 254.251C670.75 253.838 671.019 253.364 671.204 252.83C671.393 252.293 671.487 251.736 671.487 251.16V249.749H672.381V251.16ZM672.581 251.16C672.581 251.707 672.672 252.236 672.854 252.747C673.037 253.258 673.3 253.714 673.646 254.114C673.994 254.515 674.401 254.816 674.866 255.018L674.222 255.887C673.701 255.643 673.248 255.283 672.864 254.808C672.48 254.329 672.187 253.777 671.985 253.152C671.784 252.527 671.683 251.863 671.683 251.16V249.749H672.581V251.16ZM676.59 257.884H675.491V249.041H676.59V257.884ZM685.262 257.859H684.163V249.041H685.262V257.859ZM682.63 249.979C682.63 250.9 682.496 251.744 682.229 252.513C681.966 253.278 681.531 253.982 680.926 254.627C680.32 255.268 679.518 255.826 678.519 256.302L677.942 255.433C678.792 255.029 679.482 254.57 680.013 254.056C680.543 253.541 680.932 252.964 681.18 252.322C681.427 251.681 681.551 250.962 681.551 250.164V249.979H682.63ZM682.039 250.838H678.392V249.979H682.039V250.838Z" fill="#838387"/>
<path d="M130.154 283.098C129.656 283.098 129.21 283.013 128.816 282.844C128.423 282.674 128.113 282.437 127.889 282.131C127.667 281.822 127.55 281.472 127.537 281.081H128.821C128.834 281.263 128.899 281.426 129.017 281.569C129.134 281.713 129.292 281.825 129.49 281.906C129.689 281.984 129.909 282.023 130.149 282.023C130.407 282.023 130.638 281.979 130.843 281.892C131.051 281.8 131.212 281.677 131.326 281.521C131.44 281.361 131.495 281.179 131.492 280.974C131.495 280.756 131.438 280.565 131.321 280.402C131.207 280.236 131.038 280.108 130.813 280.017C130.592 279.922 130.33 279.875 130.027 279.875H129.397V278.894H130.027C130.278 278.894 130.499 278.851 130.691 278.767C130.887 278.679 131.036 278.557 131.141 278.4C131.248 278.244 131.302 278.065 131.302 277.863C131.302 277.665 131.255 277.491 131.16 277.341C131.069 277.188 130.937 277.071 130.765 276.989C130.595 276.905 130.397 276.862 130.169 276.862C129.948 276.862 129.741 276.903 129.549 276.984C129.36 277.062 129.207 277.175 129.09 277.321C128.976 277.465 128.914 277.635 128.904 277.834H127.679C127.695 277.443 127.812 277.097 128.03 276.794C128.252 276.491 128.549 276.255 128.924 276.086C129.298 275.917 129.715 275.832 130.174 275.832C130.643 275.832 131.054 275.918 131.409 276.091C131.767 276.263 132.044 276.499 132.239 276.799C132.438 277.095 132.534 277.425 132.527 277.79C132.534 278.047 132.483 278.283 132.376 278.498C132.269 278.71 132.116 278.885 131.917 279.025C131.718 279.165 131.491 279.263 131.233 279.318V279.372C131.565 279.414 131.849 279.512 132.083 279.665C132.317 279.815 132.496 280.007 132.62 280.241C132.744 280.472 132.802 280.738 132.796 281.037C132.802 281.424 132.69 281.776 132.459 282.092C132.231 282.404 131.915 282.65 131.512 282.829C131.111 283.008 130.659 283.098 130.154 283.098ZM136.512 283.098C135.945 283.098 135.459 282.956 135.052 282.673C134.648 282.39 134.337 281.976 134.119 281.433C133.904 280.886 133.797 280.23 133.797 279.465C133.797 278.7 133.904 278.046 134.119 277.502C134.337 276.958 134.65 276.545 135.057 276.262C135.464 275.975 135.949 275.832 136.512 275.832C137.075 275.832 137.56 275.975 137.967 276.262C138.377 276.545 138.689 276.96 138.904 277.507C139.119 278.05 139.227 278.703 139.227 279.465C139.227 280.233 139.119 280.889 138.904 281.433C138.693 281.976 138.382 282.39 137.972 282.673C137.565 282.956 137.078 283.098 136.512 283.098ZM136.512 282.028C136.808 282.028 137.063 281.932 137.278 281.74C137.493 281.545 137.658 281.257 137.771 280.876C137.889 280.492 137.946 280.021 137.942 279.465C137.942 278.911 137.884 278.443 137.767 278.059C137.653 277.671 137.488 277.38 137.273 277.185C137.062 276.986 136.808 276.887 136.512 276.887C136.215 276.887 135.96 276.986 135.745 277.185C135.534 277.38 135.369 277.671 135.252 278.059C135.135 278.443 135.076 278.911 135.076 279.465C135.076 280.021 135.133 280.492 135.247 280.876C135.364 281.257 135.53 281.545 135.745 281.74C135.96 281.932 136.215 282.028 136.512 282.028ZM145.081 278.977H143.499V278.083H145.081V278.977ZM142.542 277.404C142.542 278.068 142.467 278.703 142.317 279.309C142.171 279.911 141.946 280.451 141.644 280.93C141.341 281.405 140.968 281.778 140.525 282.048L139.856 281.242C140.267 280.992 140.61 280.663 140.887 280.256C141.163 279.849 141.368 279.403 141.502 278.918C141.639 278.433 141.707 277.928 141.707 277.404V275.827H142.542V277.404ZM142.757 277.36C142.757 277.865 142.815 278.347 142.933 278.806C143.053 279.261 143.239 279.683 143.489 280.07C143.743 280.458 144.061 280.772 144.441 281.013L143.846 281.853C143.406 281.589 143.045 281.223 142.762 280.754C142.479 280.285 142.27 279.764 142.137 279.191C142.003 278.618 141.937 278.008 141.937 277.36V275.827H142.757V277.36ZM147.615 283.859H146.57V275.041H147.615V283.859ZM145.774 283.444H144.759V275.192H145.774V283.444Z" fill="#666666"/>
<path d="M248.454 280.671L251.511 275.93H252.351V277.375H251.828L249.758 280.583V280.642H254.025V281.682H248.454V280.671ZM251.887 281.379L251.901 280.92V275.93H253.103V283H251.887V281.379ZM257.658 283.098C257.092 283.098 256.605 282.956 256.198 282.673C255.795 282.39 255.484 281.976 255.266 281.433C255.051 280.886 254.943 280.23 254.943 279.465C254.943 278.7 255.051 278.046 255.266 277.502C255.484 276.958 255.796 276.545 256.203 276.262C256.61 275.975 257.095 275.832 257.658 275.832C258.221 275.832 258.706 275.975 259.113 276.262C259.523 276.545 259.836 276.96 260.051 277.507C260.266 278.05 260.373 278.703 260.373 279.465C260.373 280.233 260.266 280.889 260.051 281.433C259.839 281.976 259.528 282.39 259.118 282.673C258.711 282.956 258.225 283.098 257.658 283.098ZM257.658 282.028C257.954 282.028 258.21 281.932 258.425 281.74C258.64 281.545 258.804 281.257 258.918 280.876C259.035 280.492 259.092 280.021 259.089 279.465C259.089 278.911 259.03 278.443 258.913 278.059C258.799 277.671 258.635 277.38 258.42 277.185C258.208 276.986 257.954 276.887 257.658 276.887C257.362 276.887 257.106 276.986 256.892 277.185C256.68 277.38 256.516 277.671 256.398 278.059C256.281 278.443 256.223 278.911 256.223 279.465C256.223 280.021 256.28 280.492 256.394 280.876C256.511 281.257 256.677 281.545 256.892 281.74C257.106 281.932 257.362 282.028 257.658 282.028ZM266.228 278.977H264.646V278.083H266.228V278.977ZM263.688 277.404C263.688 278.068 263.614 278.703 263.464 279.309C263.317 279.911 263.093 280.451 262.79 280.93C262.487 281.405 262.115 281.778 261.672 282.048L261.003 281.242C261.413 280.992 261.757 280.663 262.033 280.256C262.31 279.849 262.515 279.403 262.648 278.918C262.785 278.433 262.854 277.928 262.854 277.404V275.827H263.688V277.404ZM263.903 277.36C263.903 277.865 263.962 278.347 264.079 278.806C264.2 279.261 264.385 279.683 264.636 280.07C264.89 280.458 265.207 280.772 265.588 281.013L264.992 281.853C264.553 281.589 264.191 281.223 263.908 280.754C263.625 280.285 263.417 279.764 263.283 279.191C263.15 278.618 263.083 278.008 263.083 277.36V275.827H263.903V277.36ZM268.762 283.859H267.717V275.041H268.762V283.859ZM266.921 283.444H265.905V275.192H266.921V283.444Z" fill="#666666"/>
<path d="M372.096 283.098C371.633 283.098 371.214 283.011 370.836 282.839C370.462 282.663 370.167 282.422 369.952 282.116C369.737 281.81 369.622 281.465 369.605 281.081H370.841C370.86 281.27 370.927 281.439 371.041 281.589C371.155 281.739 371.305 281.856 371.49 281.94C371.676 282.025 371.878 282.067 372.096 282.067C372.356 282.067 372.589 282.009 372.794 281.892C372.999 281.774 373.16 281.613 373.277 281.408C373.395 281.203 373.453 280.97 373.453 280.71C373.453 280.443 373.393 280.205 373.272 279.997C373.155 279.789 372.991 279.626 372.779 279.509C372.568 279.388 372.327 279.328 372.057 279.328C371.777 279.325 371.539 279.372 371.344 279.47C371.148 279.567 370.995 279.722 370.885 279.934H369.708L370.133 275.93H374.308V276.994H371.183L370.968 278.874H371.026C371.17 278.715 371.363 278.584 371.607 278.483C371.855 278.382 372.12 278.332 372.403 278.332C372.836 278.332 373.227 278.433 373.575 278.635C373.924 278.833 374.195 279.112 374.391 279.47C374.589 279.825 374.688 280.227 374.688 280.676C374.688 281.141 374.578 281.558 374.356 281.926C374.135 282.294 373.827 282.582 373.434 282.79C373.043 282.995 372.597 283.098 372.096 283.098ZM378.365 283.098C377.799 283.098 377.312 282.956 376.905 282.673C376.502 282.39 376.191 281.976 375.973 281.433C375.758 280.886 375.65 280.23 375.65 279.465C375.65 278.7 375.758 278.046 375.973 277.502C376.191 276.958 376.503 276.545 376.91 276.262C377.317 275.975 377.802 275.832 378.365 275.832C378.928 275.832 379.413 275.975 379.82 276.262C380.23 276.545 380.543 276.96 380.758 277.507C380.973 278.05 381.08 278.703 381.08 279.465C381.08 280.233 380.973 280.889 380.758 281.433C380.546 281.976 380.235 282.39 379.825 282.673C379.418 282.956 378.932 283.098 378.365 283.098ZM378.365 282.028C378.661 282.028 378.917 281.932 379.132 281.74C379.347 281.545 379.511 281.257 379.625 280.876C379.742 280.492 379.799 280.021 379.796 279.465C379.796 278.911 379.737 278.443 379.62 278.059C379.506 277.671 379.342 277.38 379.127 277.185C378.915 276.986 378.661 276.887 378.365 276.887C378.069 276.887 377.813 276.986 377.599 277.185C377.387 277.38 377.223 277.671 377.105 278.059C376.988 278.443 376.93 278.911 376.93 279.465C376.93 280.021 376.987 280.492 377.101 280.876C377.218 281.257 377.384 281.545 377.599 281.74C377.813 281.932 378.069 282.028 378.365 282.028ZM386.935 278.977H385.353V278.083H386.935V278.977ZM384.396 277.404C384.396 278.068 384.321 278.703 384.171 279.309C384.024 279.911 383.8 280.451 383.497 280.93C383.194 281.405 382.822 281.778 382.379 282.048L381.71 281.242C382.12 280.992 382.464 280.663 382.74 280.256C383.017 279.849 383.222 279.403 383.355 278.918C383.492 278.433 383.561 277.928 383.561 277.404V275.827H384.396V277.404ZM384.61 277.36C384.61 277.865 384.669 278.347 384.786 278.806C384.907 279.261 385.092 279.683 385.343 280.07C385.597 280.458 385.914 280.772 386.295 281.013L385.699 281.853C385.26 281.589 384.898 281.223 384.615 280.754C384.332 280.285 384.124 279.764 383.99 279.191C383.857 278.618 383.79 278.008 383.79 277.36V275.827H384.61V277.36ZM389.469 283.859H388.424V275.041H389.469V283.859ZM387.628 283.444H386.612V275.192H387.628V283.444Z" fill="#666666"/>
<path d="M493.237 283.098C492.736 283.094 492.279 282.982 491.865 282.761C491.455 282.536 491.121 282.17 490.864 281.662C490.607 281.151 490.479 280.485 490.479 279.665C490.479 278.864 490.594 278.176 490.825 277.6C491.056 277.023 491.383 276.586 491.807 276.286C492.233 275.983 492.734 275.832 493.311 275.832C493.757 275.832 494.155 275.918 494.507 276.091C494.858 276.26 495.143 276.496 495.361 276.799C495.583 277.102 495.719 277.447 495.771 277.834H494.517C494.468 277.648 494.39 277.489 494.282 277.355C494.178 277.219 494.043 277.115 493.877 277.043C493.711 276.971 493.522 276.936 493.311 276.936C492.972 276.936 492.684 277.032 492.446 277.224C492.209 277.412 492.026 277.686 491.899 278.044C491.776 278.402 491.714 278.832 491.714 279.333H491.782C491.903 279.128 492.054 278.952 492.236 278.806C492.422 278.659 492.63 278.549 492.861 278.474C493.096 278.396 493.34 278.356 493.594 278.356C494.014 278.356 494.395 278.456 494.736 278.654C495.081 278.85 495.352 279.123 495.547 279.475C495.742 279.823 495.84 280.218 495.84 280.661C495.84 281.123 495.731 281.54 495.513 281.911C495.298 282.282 494.992 282.574 494.595 282.785C494.201 282.993 493.748 283.098 493.237 283.098ZM493.232 282.067C493.49 282.067 493.722 282.007 493.931 281.887C494.139 281.763 494.303 281.595 494.424 281.384C494.548 281.172 494.609 280.941 494.609 280.69C494.609 280.437 494.551 280.205 494.434 279.997C494.316 279.789 494.154 279.626 493.945 279.509C493.74 279.388 493.506 279.328 493.242 279.328C492.988 279.328 492.756 279.39 492.544 279.514C492.332 279.634 492.165 279.8 492.041 280.012C491.917 280.22 491.852 280.448 491.846 280.695C491.849 280.939 491.911 281.167 492.031 281.379C492.155 281.587 492.321 281.755 492.529 281.882C492.738 282.006 492.972 282.067 493.232 282.067ZM499.521 283.098C498.955 283.098 498.468 282.956 498.062 282.673C497.658 282.39 497.347 281.976 497.129 281.433C496.914 280.886 496.807 280.23 496.807 279.465C496.807 278.7 496.914 278.046 497.129 277.502C497.347 276.958 497.66 276.545 498.066 276.262C498.473 275.975 498.958 275.832 499.521 275.832C500.085 275.832 500.57 275.975 500.977 276.262C501.387 276.545 501.699 276.96 501.914 277.507C502.129 278.05 502.236 278.703 502.236 279.465C502.236 280.233 502.129 280.889 501.914 281.433C501.702 281.976 501.392 282.39 500.981 282.673C500.575 282.956 500.088 283.098 499.521 283.098ZM499.521 282.028C499.818 282.028 500.073 281.932 500.288 281.74C500.503 281.545 500.667 281.257 500.781 280.876C500.898 280.492 500.955 280.021 500.952 279.465C500.952 278.911 500.894 278.443 500.776 278.059C500.662 277.671 500.498 277.38 500.283 277.185C500.072 276.986 499.818 276.887 499.521 276.887C499.225 276.887 498.97 276.986 498.755 277.185C498.543 277.38 498.379 277.671 498.262 278.059C498.145 278.443 498.086 278.911 498.086 279.465C498.086 280.021 498.143 280.492 498.257 280.876C498.374 281.257 498.54 281.545 498.755 281.74C498.97 281.932 499.225 282.028 499.521 282.028ZM508.091 278.977H506.509V278.083H508.091V278.977ZM505.552 277.404C505.552 278.068 505.477 278.703 505.327 279.309C505.181 279.911 504.956 280.451 504.653 280.93C504.351 281.405 503.978 281.778 503.535 282.048L502.866 281.242C503.276 280.992 503.62 280.663 503.896 280.256C504.173 279.849 504.378 279.403 504.512 278.918C504.648 278.433 504.717 277.928 504.717 277.404V275.827H505.552V277.404ZM505.767 277.36C505.767 277.865 505.825 278.347 505.942 278.806C506.063 279.261 506.248 279.683 506.499 280.07C506.753 280.458 507.07 280.772 507.451 281.013L506.855 281.853C506.416 281.589 506.055 281.223 505.771 280.754C505.488 280.285 505.28 279.764 505.146 279.191C505.013 278.618 504.946 278.008 504.946 277.36V275.827H505.767V277.36ZM510.625 283.859H509.58V275.041H510.625V283.859ZM508.784 283.444H507.769V275.192H508.784V283.444Z" fill="#666666"/>
<path d="M614.916 277.038V276.994H611.356V275.93H616.234V277.019L613.168 283H611.85L614.916 277.038ZM619.711 283.098C619.145 283.098 618.658 282.956 618.251 282.673C617.847 282.39 617.536 281.976 617.318 281.433C617.104 280.886 616.996 280.23 616.996 279.465C616.996 278.7 617.104 278.046 617.318 277.502C617.536 276.958 617.849 276.545 618.256 276.262C618.663 275.975 619.148 275.832 619.711 275.832C620.274 275.832 620.759 275.975 621.166 276.262C621.576 276.545 621.889 276.96 622.104 277.507C622.318 278.05 622.426 278.703 622.426 279.465C622.426 280.233 622.318 280.889 622.104 281.433C621.892 281.976 621.581 282.39 621.171 282.673C620.764 282.956 620.277 283.098 619.711 283.098ZM619.711 282.028C620.007 282.028 620.263 281.932 620.478 281.74C620.692 281.545 620.857 281.257 620.971 280.876C621.088 280.492 621.145 280.021 621.142 279.465C621.142 278.911 621.083 278.443 620.966 278.059C620.852 277.671 620.688 277.38 620.473 277.185C620.261 276.986 620.007 276.887 619.711 276.887C619.415 276.887 619.159 276.986 618.944 277.185C618.733 277.38 618.568 277.671 618.451 278.059C618.334 278.443 618.275 278.911 618.275 279.465C618.275 280.021 618.332 280.492 618.446 280.876C618.563 281.257 618.729 281.545 618.944 281.74C619.159 281.932 619.415 282.028 619.711 282.028ZM628.28 278.977H626.698V278.083H628.28V278.977ZM625.741 277.404C625.741 278.068 625.666 278.703 625.517 279.309C625.37 279.911 625.146 280.451 624.843 280.93C624.54 281.405 624.167 281.778 623.725 282.048L623.056 281.242C623.466 280.992 623.809 280.663 624.086 280.256C624.363 279.849 624.568 279.403 624.701 278.918C624.838 278.433 624.906 277.928 624.906 277.404V275.827H625.741V277.404ZM625.956 277.36C625.956 277.865 626.015 278.347 626.132 278.806C626.252 279.261 626.438 279.683 626.688 280.07C626.942 280.458 627.26 280.772 627.641 281.013L627.045 281.853C626.605 281.589 626.244 281.223 625.961 280.754C625.678 280.285 625.469 279.764 625.336 279.191C625.202 278.618 625.136 278.008 625.136 277.36V275.827H625.956V277.36ZM630.814 283.859H629.77V275.041H630.814V283.859ZM628.974 283.444H627.958V275.192H628.974V283.444Z" fill="#666666"/>
<path d="M734.154 283.098C733.637 283.098 733.174 283.011 732.768 282.839C732.361 282.666 732.042 282.429 731.811 282.126C731.583 281.823 731.469 281.483 731.469 281.105C731.469 280.812 731.534 280.539 731.664 280.285C731.798 280.031 731.98 279.821 732.211 279.655C732.445 279.489 732.702 279.385 732.982 279.343V279.299C732.742 279.243 732.527 279.143 732.338 278.996C732.149 278.846 732.001 278.661 731.894 278.439C731.789 278.218 731.737 277.98 731.737 277.727C731.737 277.365 731.841 277.041 732.05 276.755C732.261 276.465 732.549 276.239 732.914 276.076C733.282 275.913 733.695 275.832 734.154 275.832C734.61 275.832 735.022 275.913 735.39 276.076C735.761 276.239 736.05 276.465 736.259 276.755C736.467 277.041 736.571 277.365 736.571 277.727C736.571 277.98 736.518 278.218 736.41 278.439C736.303 278.661 736.155 278.846 735.966 278.996C735.777 279.143 735.562 279.243 735.321 279.299V279.343C735.601 279.385 735.857 279.489 736.088 279.655C736.319 279.821 736.501 280.031 736.635 280.285C736.771 280.539 736.84 280.812 736.84 281.105C736.84 281.483 736.724 281.823 736.493 282.126C736.265 282.429 735.946 282.666 735.536 282.839C735.129 283.011 734.669 283.098 734.154 283.098ZM734.154 282.092C734.428 282.092 734.667 282.046 734.872 281.955C735.08 281.861 735.242 281.73 735.355 281.564C735.469 281.398 735.526 281.208 735.526 280.993C735.526 280.772 735.468 280.573 735.351 280.397C735.233 280.218 735.069 280.08 734.857 279.982C734.649 279.882 734.415 279.831 734.154 279.831C733.894 279.831 733.658 279.882 733.446 279.982C733.235 280.08 733.07 280.218 732.953 280.397C732.836 280.573 732.779 280.772 732.782 280.993C732.779 281.208 732.834 281.398 732.948 281.564C733.062 281.73 733.223 281.861 733.432 281.955C733.64 282.046 733.881 282.092 734.154 282.092ZM734.154 278.889C734.379 278.889 734.581 278.845 734.76 278.757C734.939 278.666 735.079 278.542 735.18 278.386C735.281 278.229 735.331 278.05 735.331 277.849C735.331 277.65 735.281 277.473 735.18 277.316C735.082 277.16 734.944 277.04 734.765 276.955C734.586 276.87 734.382 276.828 734.154 276.828C733.923 276.828 733.718 276.87 733.539 276.955C733.36 277.04 733.222 277.16 733.124 277.316C733.026 277.473 732.978 277.65 732.978 277.849C732.978 278.05 733.028 278.229 733.129 278.386C733.23 278.542 733.368 278.666 733.544 278.757C733.723 278.845 733.926 278.889 734.154 278.889ZM740.502 283.098C739.936 283.098 739.449 282.956 739.042 282.673C738.638 282.39 738.327 281.976 738.109 281.433C737.895 280.886 737.787 280.23 737.787 279.465C737.787 278.7 737.895 278.046 738.109 277.502C738.327 276.958 738.64 276.545 739.047 276.262C739.454 275.975 739.939 275.832 740.502 275.832C741.065 275.832 741.55 275.975 741.957 276.262C742.367 276.545 742.68 276.96 742.895 277.507C743.109 278.05 743.217 278.703 743.217 279.465C743.217 280.233 743.109 280.889 742.895 281.433C742.683 281.976 742.372 282.39 741.962 282.673C741.555 282.956 741.068 283.098 740.502 283.098ZM740.502 282.028C740.798 282.028 741.054 281.932 741.269 281.74C741.483 281.545 741.648 281.257 741.762 280.876C741.879 280.492 741.936 280.021 741.933 279.465C741.933 278.911 741.874 278.443 741.757 278.059C741.643 277.671 741.479 277.38 741.264 277.185C741.052 276.986 740.798 276.887 740.502 276.887C740.206 276.887 739.95 276.986 739.735 277.185C739.524 277.38 739.359 277.671 739.242 278.059C739.125 278.443 739.066 278.911 739.066 279.465C739.066 280.021 739.123 280.492 739.237 280.876C739.354 281.257 739.521 281.545 739.735 281.74C739.95 281.932 740.206 282.028 740.502 282.028ZM749.071 278.977H747.489V278.083H749.071V278.977ZM746.532 277.404C746.532 278.068 746.457 278.703 746.308 279.309C746.161 279.911 745.937 280.451 745.634 280.93C745.331 281.405 744.958 281.778 744.516 282.048L743.847 281.242C744.257 280.992 744.6 280.663 744.877 280.256C745.154 279.849 745.359 279.403 745.492 278.918C745.629 278.433 745.697 277.928 745.697 277.404V275.827H746.532V277.404ZM746.747 277.36C746.747 277.865 746.806 278.347 746.923 278.806C747.043 279.261 747.229 279.683 747.479 280.07C747.733 280.458 748.051 280.772 748.432 281.013L747.836 281.853C747.396 281.589 747.035 281.223 746.752 280.754C746.469 280.285 746.26 279.764 746.127 279.191C745.993 278.618 745.927 278.008 745.927 277.36V275.827H746.747V277.36ZM751.605 283.859H750.561V275.041H751.605V283.859ZM749.765 283.444H748.749V275.192H749.765V283.444Z" fill="#666666"/>
<circle cx="379" cy="80" r="4.5" fill="#334195" stroke="white"/>
<circle cx="499" cy="80" r="4.5" fill="#334195" stroke="white"/>
<rect x="500" y="1" width="120" height="268" fill="#162788" fill-opacity="0.25"/>
<path d="M572 155.001C572 158.867 568.866 162.001 565 162.001L433 162.001C429.134 162.001 426 158.867 426 155.001L426 111.001C426 107.135 429.134 104.001 433 104.001L565 104.001C568.866 104.001 572 107.135 572 111.001L572 155.001Z" fill="#676767"/>
<path d="M497.268 90C498.038 88.6667 499.962 88.6667 500.732 90L508.526 103.5C509.296 104.833 508.334 106.5 506.794 106.5H491.206C489.666 106.5 488.704 104.833 489.474 103.5L497.268 90Z" fill="#676767"/>
<path d="M439.826 116.163C439.826 116.964 439.705 117.737 439.463 118.483C439.221 119.226 438.879 119.884 438.438 120.458C437.996 121.032 437.484 121.472 436.902 121.776L436.205 120.88C436.74 120.626 437.211 120.251 437.617 119.755C438.027 119.255 438.348 118.692 438.578 118.067C438.809 117.438 438.924 116.804 438.924 116.163V114.364H439.826V116.163ZM440.02 116.163C440.02 116.78 440.131 117.39 440.354 117.991C440.58 118.589 440.895 119.126 441.297 119.603C441.699 120.075 442.154 120.437 442.662 120.687L441.982 121.577C441.416 121.28 440.916 120.854 440.482 120.3C440.053 119.745 439.721 119.11 439.486 118.396C439.252 117.681 439.135 116.937 439.135 116.163V114.364H440.02V116.163ZM444.566 123.991H443.459V113.491H444.566V123.991ZM446.26 118.636H444.314V117.681H446.26V118.636ZM450.807 121.542H449.693V119.813H450.807V121.542ZM455.441 123.991H454.334V113.491H455.441V123.991ZM447.443 121.138C448.662 121.13 449.777 121.104 450.789 121.062C451.805 121.015 452.768 120.933 453.678 120.815L453.76 121.653C452.729 121.821 451.658 121.933 450.549 121.987C449.443 122.042 448.252 122.069 446.975 122.069L446.811 121.138H447.443ZM453.449 115.642H447.033V114.751H453.449V115.642ZM450.232 116.181C450.74 116.181 451.188 116.263 451.574 116.427C451.965 116.587 452.268 116.813 452.482 117.106C452.701 117.399 452.811 117.743 452.811 118.138C452.811 118.521 452.701 118.858 452.482 119.151C452.268 119.44 451.965 119.667 451.574 119.831C451.188 119.995 450.74 120.077 450.232 120.077C449.736 120.077 449.293 119.997 448.902 119.837C448.516 119.677 448.215 119.45 448 119.157C447.789 118.86 447.684 118.521 447.684 118.138C447.684 117.743 447.789 117.399 448 117.106C448.215 116.813 448.516 116.587 448.902 116.427C449.293 116.263 449.736 116.181 450.232 116.181ZM450.232 117.03C449.947 117.03 449.689 117.077 449.459 117.171C449.229 117.261 449.049 117.39 448.92 117.558C448.791 117.722 448.727 117.915 448.727 118.138C448.727 118.353 448.791 118.542 448.92 118.706C449.049 118.866 449.229 118.991 449.459 119.081C449.689 119.167 449.947 119.21 450.232 119.21C450.529 119.21 450.793 119.169 451.023 119.087C451.254 119.001 451.432 118.876 451.557 118.712C451.682 118.544 451.744 118.353 451.744 118.138C451.744 117.915 451.682 117.722 451.557 117.558C451.432 117.39 451.254 117.261 451.023 117.171C450.793 117.077 450.529 117.03 450.232 117.03ZM450.812 115.237H449.693V113.515H450.812V115.237ZM460.674 115.372C460.674 116.009 460.553 116.612 460.311 117.183C460.072 117.753 459.73 118.251 459.285 118.677C458.84 119.099 458.318 119.415 457.721 119.626L457.141 118.747C457.668 118.56 458.129 118.294 458.523 117.95C458.922 117.603 459.227 117.204 459.438 116.755C459.652 116.306 459.76 115.845 459.76 115.372V114.552H460.674V115.372ZM460.885 115.36C460.885 115.802 460.986 116.231 461.189 116.649C461.393 117.063 461.686 117.435 462.068 117.763C462.451 118.087 462.9 118.339 463.416 118.519L462.848 119.392C462.258 119.185 461.748 118.88 461.318 118.478C460.889 118.075 460.559 117.604 460.328 117.065C460.098 116.522 459.982 115.954 459.982 115.36V114.552H460.885V115.36ZM465.092 117.089H462.83V116.169H465.092V117.089ZM463.146 115.073H457.475V114.177H463.146V115.073ZM465.883 123.991H464.77V121.208H458.77V120.3H465.883V123.991ZM465.883 119.772H464.77V113.491H465.883V119.772ZM478.387 117.083H476.119V116.169H478.387V117.083ZM479.184 119.743H478.07V113.491H479.184V119.743ZM475.662 120.042C476.4 120.042 477.035 120.12 477.566 120.276C478.102 120.433 478.51 120.659 478.791 120.956C479.076 121.249 479.219 121.603 479.219 122.017C479.219 122.431 479.076 122.784 478.791 123.077C478.51 123.374 478.102 123.601 477.566 123.757C477.035 123.913 476.4 123.993 475.662 123.997C474.932 123.993 474.301 123.913 473.77 123.757C473.238 123.601 472.83 123.374 472.545 123.077C472.26 122.784 472.117 122.431 472.117 122.017C472.117 121.603 472.26 121.249 472.545 120.956C472.83 120.659 473.238 120.433 473.77 120.276C474.301 120.12 474.932 120.042 475.662 120.042ZM475.662 120.897C475.158 120.897 474.721 120.942 474.35 121.032C473.982 121.118 473.701 121.245 473.506 121.413C473.314 121.581 473.219 121.782 473.219 122.017C473.219 122.243 473.314 122.44 473.506 122.608C473.701 122.776 473.982 122.905 474.35 122.995C474.721 123.081 475.158 123.124 475.662 123.124C476.178 123.124 476.617 123.081 476.98 122.995C477.348 122.905 477.627 122.776 477.818 122.608C478.014 122.44 478.111 122.243 478.111 122.017C478.111 121.782 478.014 121.581 477.818 121.413C477.627 121.245 477.348 121.118 476.98 121.032C476.617 120.942 476.178 120.897 475.662 120.897ZM473.975 115.366C473.975 116.011 473.854 116.62 473.611 117.194C473.373 117.769 473.031 118.272 472.586 118.706C472.141 119.136 471.619 119.462 471.021 119.685L470.441 118.794C470.973 118.606 471.436 118.335 471.83 117.979C472.229 117.624 472.533 117.22 472.744 116.767C472.955 116.31 473.061 115.843 473.061 115.366V114.552H473.975V115.366ZM474.186 115.354C474.186 115.796 474.287 116.226 474.49 116.644C474.693 117.058 474.986 117.429 475.369 117.757C475.752 118.081 476.201 118.333 476.717 118.513L476.148 119.397C475.559 119.19 475.049 118.884 474.619 118.478C474.189 118.071 473.859 117.599 473.629 117.06C473.398 116.517 473.283 115.948 473.283 115.354V114.552H474.186V115.354ZM476.447 115.132H470.775V114.212H476.447V115.132ZM489.555 121.255H488.441V113.503H489.555V121.255ZM488.834 115.7H485.559V114.815H488.834V115.7ZM489.824 123.786H482.711V122.866H489.824V123.786ZM483.836 123.294H482.711V120.587H483.836V123.294ZM482.529 119.192H481.416V114.224H482.529V119.192ZM482.225 118.835C483.061 118.835 483.836 118.81 484.551 118.759C485.266 118.704 485.998 118.608 486.748 118.472L486.854 119.38C486.084 119.524 485.338 119.624 484.615 119.679C483.893 119.733 483.096 119.763 482.225 119.767H481.416V118.835H482.225ZM488.834 117.692H485.559V116.808H488.834V117.692ZM492.367 121.905C492.219 121.905 492.08 121.866 491.951 121.788C491.822 121.71 491.721 121.608 491.646 121.483C491.576 121.354 491.541 121.216 491.541 121.067C491.541 120.923 491.576 120.786 491.646 120.657C491.721 120.528 491.822 120.429 491.951 120.358C492.08 120.284 492.219 120.247 492.367 120.247C492.512 120.247 492.648 120.284 492.777 120.358C492.906 120.429 493.008 120.528 493.082 120.657C493.156 120.786 493.193 120.923 493.193 121.067C493.193 121.216 493.156 121.354 493.082 121.483C493.008 121.608 492.906 121.71 492.777 121.788C492.648 121.866 492.512 121.905 492.367 121.905ZM492.367 117.276C492.219 117.276 492.08 117.237 491.951 117.159C491.822 117.081 491.721 116.979 491.646 116.854C491.576 116.726 491.541 116.587 491.541 116.438C491.541 116.294 491.576 116.157 491.646 116.028C491.721 115.899 491.822 115.8 491.951 115.729C492.08 115.655 492.219 115.618 492.367 115.618C492.512 115.618 492.648 115.655 492.777 115.729C492.906 115.8 493.008 115.899 493.082 116.028C493.156 116.157 493.193 116.294 493.193 116.438C493.193 116.587 493.156 116.726 493.082 116.854C493.008 116.979 492.906 117.081 492.777 117.159C492.648 117.237 492.512 117.276 492.367 117.276Z" fill="white"/>
<path d="M498.877 115.565H501.514V114.036H502.609V118.876H497.77V114.036H498.877V115.565ZM501.514 117.979V116.433H498.877V117.979H501.514ZM505.205 116.937H502.322V116.017H505.205V116.937ZM506.02 119.239H504.906V113.491H506.02V119.239ZM500.283 120.897H504.906V119.72H506.008V123.856H499.17V119.72H500.283V120.897ZM504.906 122.948V121.776H500.283V122.948H504.906ZM513.848 118.425H511.914V117.517H513.848V118.425ZM516.672 123.991H515.6V113.491H516.672V123.991ZM514.533 123.476H513.479V113.69H514.533V123.476ZM510.021 114.329C510.479 114.329 510.879 114.479 511.223 114.78C511.566 115.077 511.832 115.505 512.02 116.063C512.211 116.622 512.307 117.278 512.307 118.032C512.307 118.778 512.211 119.431 512.02 119.989C511.832 120.548 511.566 120.979 511.223 121.284C510.879 121.585 510.479 121.737 510.021 121.741C509.568 121.737 509.17 121.585 508.826 121.284C508.482 120.979 508.217 120.548 508.029 119.989C507.846 119.431 507.754 118.778 507.754 118.032C507.754 117.278 507.846 116.622 508.029 116.063C508.217 115.505 508.482 115.077 508.826 114.78C509.17 114.479 509.568 114.329 510.021 114.329ZM510.021 115.384C509.764 115.38 509.543 115.483 509.359 115.694C509.176 115.905 509.035 116.21 508.938 116.608C508.84 117.003 508.791 117.478 508.791 118.032C508.791 118.579 508.84 119.052 508.938 119.45C509.035 119.849 509.178 120.153 509.365 120.364C509.553 120.571 509.771 120.675 510.021 120.675C510.275 120.675 510.496 120.571 510.684 120.364C510.871 120.153 511.016 119.849 511.117 119.45C511.219 119.052 511.27 118.579 511.27 118.032C511.27 117.478 511.219 117.003 511.117 116.608C511.016 116.21 510.871 115.905 510.684 115.694C510.496 115.483 510.275 115.38 510.021 115.384ZM526.217 117.886H523.316V116.989H526.217V117.886ZM521.582 116.163C521.582 116.968 521.461 117.745 521.219 118.495C520.977 119.241 520.635 119.903 520.193 120.481C519.752 121.06 519.24 121.503 518.658 121.812L517.949 120.909C518.484 120.655 518.957 120.28 519.367 119.784C519.781 119.284 520.102 118.718 520.328 118.085C520.555 117.452 520.668 116.812 520.668 116.163V114.364H521.582V116.163ZM521.799 116.163C521.799 116.808 521.91 117.435 522.133 118.044C522.359 118.649 522.674 119.188 523.076 119.661C523.482 120.13 523.947 120.483 524.471 120.722L523.803 121.624C523.217 121.323 522.705 120.897 522.268 120.347C521.834 119.792 521.496 119.155 521.254 118.437C521.016 117.714 520.896 116.956 520.896 116.163V114.364H521.799V116.163ZM526.768 124.021H525.66V113.491H526.768V124.021ZM539.266 117.083H536.998V116.169H539.266V117.083ZM540.062 119.743H538.949V113.491H540.062V119.743ZM536.541 120.042C537.279 120.042 537.914 120.12 538.445 120.276C538.98 120.433 539.389 120.659 539.67 120.956C539.955 121.249 540.098 121.603 540.098 122.017C540.098 122.431 539.955 122.784 539.67 123.077C539.389 123.374 538.98 123.601 538.445 123.757C537.914 123.913 537.279 123.993 536.541 123.997C535.811 123.993 535.18 123.913 534.648 123.757C534.117 123.601 533.709 123.374 533.424 123.077C533.139 122.784 532.996 122.431 532.996 122.017C532.996 121.603 533.139 121.249 533.424 120.956C533.709 120.659 534.117 120.433 534.648 120.276C535.18 120.12 535.811 120.042 536.541 120.042ZM536.541 120.897C536.037 120.897 535.6 120.942 535.229 121.032C534.861 121.118 534.58 121.245 534.385 121.413C534.193 121.581 534.098 121.782 534.098 122.017C534.098 122.243 534.193 122.44 534.385 122.608C534.58 122.776 534.861 122.905 535.229 122.995C535.6 123.081 536.037 123.124 536.541 123.124C537.057 123.124 537.496 123.081 537.859 122.995C538.227 122.905 538.506 122.776 538.697 122.608C538.893 122.44 538.99 122.243 538.99 122.017C538.99 121.782 538.893 121.581 538.697 121.413C538.506 121.245 538.227 121.118 537.859 121.032C537.496 120.942 537.057 120.897 536.541 120.897ZM534.854 115.366C534.854 116.011 534.732 116.62 534.49 117.194C534.252 117.769 533.91 118.272 533.465 118.706C533.02 119.136 532.498 119.462 531.9 119.685L531.32 118.794C531.852 118.606 532.314 118.335 532.709 117.979C533.107 117.624 533.412 117.22 533.623 116.767C533.834 116.31 533.939 115.843 533.939 115.366V114.552H534.854V115.366ZM535.064 115.354C535.064 115.796 535.166 116.226 535.369 116.644C535.572 117.058 535.865 117.429 536.248 117.757C536.631 118.081 537.08 118.333 537.596 118.513L537.027 119.397C536.438 119.19 535.928 118.884 535.498 118.478C535.068 118.071 534.738 117.599 534.508 117.06C534.277 116.517 534.162 115.948 534.162 115.354V114.552H535.064V115.354ZM537.326 115.132H531.654V114.212H537.326V115.132ZM549.93 121.36H548.822V113.503H549.93V121.36ZM551.459 117.804H549.59V116.884H551.459V117.804ZM547.943 115.618H541.691V114.728H547.943V115.618ZM544.82 116.128C545.32 116.128 545.762 116.21 546.145 116.374C546.531 116.538 546.832 116.771 547.047 117.071C547.262 117.372 547.369 117.72 547.369 118.114C547.369 118.505 547.262 118.849 547.047 119.146C546.832 119.438 546.531 119.667 546.145 119.831C545.762 119.995 545.32 120.077 544.82 120.077C544.32 120.077 543.875 119.995 543.484 119.831C543.098 119.667 542.797 119.438 542.582 119.146C542.371 118.849 542.266 118.505 542.266 118.114C542.266 117.72 542.371 117.372 542.582 117.071C542.797 116.771 543.098 116.538 543.484 116.374C543.875 116.21 544.32 116.128 544.82 116.128ZM544.82 116.995C544.527 116.995 544.268 117.04 544.041 117.13C543.814 117.216 543.641 117.345 543.52 117.517C543.398 117.688 543.338 117.888 543.338 118.114C543.338 118.341 543.398 118.536 543.52 118.7C543.641 118.864 543.814 118.991 544.041 119.081C544.268 119.167 544.527 119.21 544.82 119.21C545.113 119.21 545.373 119.167 545.6 119.081C545.83 118.991 546.008 118.864 546.133 118.7C546.258 118.536 546.32 118.341 546.32 118.114C546.32 117.888 546.258 117.688 546.133 117.517C546.008 117.345 545.83 117.216 545.6 117.13C545.373 117.04 545.113 116.995 544.82 116.995ZM545.377 115.179H544.27V113.497H545.377V115.179ZM550.375 123.786H543.279V122.866H550.375V123.786ZM544.381 123.247H543.279V120.745H544.381V123.247ZM444.344 131.083H442.076V130.169H444.344V131.083ZM445.141 133.743H444.027V127.491H445.141V133.743ZM441.619 134.042C442.357 134.042 442.992 134.12 443.523 134.276C444.059 134.433 444.467 134.659 444.748 134.956C445.033 135.249 445.176 135.603 445.176 136.017C445.176 136.431 445.033 136.784 444.748 137.077C444.467 137.374 444.059 137.601 443.523 137.757C442.992 137.913 442.357 137.993 441.619 137.997C440.889 137.993 440.258 137.913 439.727 137.757C439.195 137.601 438.787 137.374 438.502 137.077C438.217 136.784 438.074 136.431 438.074 136.017C438.074 135.603 438.217 135.249 438.502 134.956C438.787 134.659 439.195 134.433 439.727 134.276C440.258 134.12 440.889 134.042 441.619 134.042ZM441.619 134.897C441.115 134.897 440.678 134.942 440.307 135.032C439.939 135.118 439.658 135.245 439.463 135.413C439.271 135.581 439.176 135.782 439.176 136.017C439.176 136.243 439.271 136.44 439.463 136.608C439.658 136.776 439.939 136.905 440.307 136.995C440.678 137.081 441.115 137.124 441.619 137.124C442.135 137.124 442.574 137.081 442.938 136.995C443.305 136.905 443.584 136.776 443.775 136.608C443.971 136.44 444.068 136.243 444.068 136.017C444.068 135.782 443.971 135.581 443.775 135.413C443.584 135.245 443.305 135.118 442.938 135.032C442.574 134.942 442.135 134.897 441.619 134.897ZM439.932 129.366C439.932 130.011 439.811 130.62 439.568 131.194C439.33 131.769 438.988 132.272 438.543 132.706C438.098 133.136 437.576 133.462 436.979 133.685L436.398 132.794C436.93 132.606 437.393 132.335 437.787 131.979C438.186 131.624 438.49 131.22 438.701 130.767C438.912 130.31 439.018 129.843 439.018 129.366V128.552H439.932V129.366ZM440.143 129.354C440.143 129.796 440.244 130.226 440.447 130.644C440.65 131.058 440.943 131.429 441.326 131.757C441.709 132.081 442.158 132.333 442.674 132.513L442.105 133.397C441.516 133.19 441.006 132.884 440.576 132.478C440.146 132.071 439.816 131.599 439.586 131.06C439.355 130.517 439.24 129.948 439.24 129.354V128.552H440.143V129.354ZM442.404 129.132H436.732V128.212H442.404V129.132ZM455.512 135.255H454.398V127.503H455.512V135.255ZM454.791 129.7H451.516V128.815H454.791V129.7ZM455.781 137.786H448.668V136.866H455.781V137.786ZM449.793 137.294H448.668V134.587H449.793V137.294ZM448.486 133.192H447.373V128.224H448.486V133.192ZM448.182 132.835C449.018 132.835 449.793 132.81 450.508 132.759C451.223 132.704 451.955 132.608 452.705 132.472L452.811 133.38C452.041 133.524 451.295 133.624 450.572 133.679C449.85 133.733 449.053 133.763 448.182 133.767H447.373V132.835H448.182ZM454.791 131.692H451.516V130.808H454.791V131.692ZM468.789 137.991H467.664V127.491H468.789V137.991ZM465.672 128.622C465.672 129.692 465.506 130.683 465.174 131.593C464.846 132.499 464.318 133.335 463.592 134.101C462.865 134.862 461.92 135.522 460.756 136.081L460.158 135.179C461.17 134.702 462 134.147 462.648 133.515C463.301 132.882 463.783 132.175 464.096 131.394C464.408 130.612 464.564 129.749 464.564 128.804V128.622H465.672ZM465.045 129.513H460.668V128.622H465.045V129.513ZM478.68 135.126H477.555V127.491H478.68V135.126ZM480.209 131.534H478.34V130.608H480.209V131.534ZM475.832 128.294C475.832 129.196 475.635 130.021 475.24 130.767C474.846 131.509 474.277 132.151 473.535 132.694C472.797 133.233 471.914 133.661 470.887 133.978L470.412 133.087C471.299 132.821 472.057 132.476 472.686 132.05C473.318 131.62 473.803 131.132 474.139 130.585C474.475 130.034 474.643 129.444 474.643 128.815V128.294H475.832ZM475.24 129.22H470.857V128.294H475.24V129.22ZM479.119 137.786H472.018V136.866H479.119V137.786ZM473.131 137.247H472.018V134.353H473.131V137.247ZM485.588 127.667C486.377 127.667 487.051 127.737 487.609 127.878C488.168 128.015 488.594 128.218 488.887 128.487C489.184 128.757 489.332 129.083 489.332 129.466C489.332 129.856 489.184 130.188 488.887 130.462C488.594 130.731 488.168 130.937 487.609 131.077C487.051 131.218 486.377 131.292 485.588 131.3C484.799 131.292 484.123 131.218 483.561 131.077C483.002 130.937 482.572 130.731 482.271 130.462C481.975 130.188 481.826 129.856 481.826 129.466C481.826 129.083 481.975 128.757 482.271 128.487C482.572 128.218 483.002 128.015 483.561 127.878C484.123 127.737 484.799 127.667 485.588 127.667ZM485.588 128.493C485.033 128.493 484.561 128.53 484.17 128.604C483.783 128.679 483.49 128.79 483.291 128.938C483.092 129.087 482.992 129.263 482.992 129.466C482.992 129.688 483.09 129.874 483.285 130.022C483.48 130.167 483.771 130.276 484.158 130.351C484.545 130.425 485.021 130.462 485.588 130.462C486.154 130.462 486.631 130.425 487.018 130.351C487.404 130.276 487.695 130.165 487.891 130.017C488.09 129.864 488.189 129.681 488.189 129.466C488.189 129.263 488.088 129.089 487.885 128.944C487.686 128.8 487.391 128.688 487 128.61C486.613 128.532 486.143 128.493 485.588 128.493ZM490.375 132.829H480.801V131.938H490.375V132.829ZM489.162 136.099H483.057V137.265H481.961V135.296H488.072V134.47H481.943V133.638H489.162V136.099ZM489.467 137.892H481.961V137.03H489.467V137.892ZM502.281 138.021H501.174V127.491H502.281V138.021ZM503.975 132.483H502.029V131.563H503.975V132.483ZM495.396 134.487C496.389 134.487 497.256 134.462 497.998 134.411C498.74 134.356 499.488 134.261 500.242 134.124L500.377 135.073C499.611 135.21 498.854 135.302 498.104 135.349C497.357 135.392 496.455 135.413 495.396 135.413H494.547V134.487H495.396ZM499.457 129.413H495.654V134.921H494.547V128.499H499.457V129.413ZM510.35 130.702C510.35 131.417 510.256 132.112 510.068 132.788C509.881 133.464 509.607 134.071 509.248 134.61C508.889 135.146 508.451 135.56 507.936 135.853L507.285 135.032C507.754 134.763 508.154 134.397 508.486 133.937C508.818 133.476 509.068 132.966 509.236 132.407C509.408 131.849 509.494 131.28 509.494 130.702V130.222H510.35V130.702ZM510.543 130.702C510.543 131.261 510.627 131.806 510.795 132.337C510.967 132.864 511.221 133.345 511.557 133.778C511.893 134.212 512.297 134.554 512.77 134.804L512.131 135.63C511.615 135.349 511.174 134.954 510.807 134.446C510.439 133.938 510.162 133.364 509.975 132.724C509.791 132.079 509.699 131.405 509.699 130.702V130.222H510.543V130.702ZM512.459 130.315H507.566V129.401H512.459V130.315ZM510.549 130.087H509.494V127.872H510.549V130.087ZM516.473 137.991H515.4V127.491H516.473V137.991ZM515.793 132.606H513.842V131.675H515.793V132.606ZM514.152 137.476H513.098V127.69H514.152V137.476ZM521.646 134.071H520.539V131.962H521.646V134.071ZM526.51 134.112H525.396V127.503H526.51V134.112ZM517.721 131.61C519.15 131.603 520.396 131.577 521.459 131.534C522.525 131.491 523.549 131.399 524.529 131.259L524.594 132.05C523.582 132.222 522.521 132.337 521.412 132.396C520.303 132.454 519.115 132.483 517.85 132.483L517.721 131.61ZM525.701 133.55H523.316V132.765H525.701V133.55ZM521.16 127.726C521.68 127.726 522.135 127.792 522.525 127.925C522.92 128.058 523.225 128.249 523.439 128.499C523.658 128.749 523.768 129.042 523.768 129.378C523.768 129.71 523.658 130.001 523.439 130.251C523.225 130.501 522.92 130.69 522.525 130.819C522.135 130.948 521.68 131.017 521.16 131.024C520.629 131.017 520.168 130.948 519.777 130.819C519.387 130.69 519.084 130.501 518.869 130.251C518.654 130.001 518.547 129.71 518.547 129.378C518.547 129.042 518.654 128.749 518.869 128.499C519.084 128.249 519.389 128.058 519.783 127.925C520.178 127.792 520.637 127.726 521.16 127.726ZM521.16 128.528C520.84 128.528 520.561 128.563 520.322 128.634C520.084 128.7 519.9 128.798 519.771 128.927C519.643 129.052 519.578 129.202 519.578 129.378C519.578 129.55 519.641 129.702 519.766 129.835C519.895 129.964 520.078 130.063 520.316 130.134C520.559 130.204 520.84 130.239 521.16 130.239C521.477 130.239 521.752 130.204 521.986 130.134C522.221 130.063 522.4 129.966 522.525 129.841C522.654 129.712 522.719 129.558 522.719 129.378C522.719 129.202 522.654 129.052 522.525 128.927C522.4 128.798 522.221 128.7 521.986 128.634C521.752 128.563 521.477 128.528 521.16 128.528ZM521.207 134.663C521.207 135.136 521.113 135.587 520.926 136.017C520.738 136.442 520.461 136.817 520.094 137.142C519.73 137.466 519.295 137.71 518.787 137.874L518.242 137.042C518.684 136.909 519.062 136.72 519.379 136.474C519.695 136.228 519.936 135.948 520.1 135.636C520.268 135.319 520.352 134.995 520.352 134.663V134.487H521.207V134.663ZM521.412 134.663C521.412 134.987 521.48 135.31 521.617 135.63C521.758 135.946 521.971 136.237 522.256 136.503C522.541 136.765 522.887 136.972 523.293 137.124L522.83 137.962C522.338 137.782 521.924 137.519 521.588 137.171C521.256 136.827 521.01 136.438 520.85 136.005C520.693 135.567 520.615 135.12 520.615 134.663V134.487H521.412V134.663ZM525.062 134.663C525.062 135.112 524.98 135.554 524.816 135.987C524.656 136.417 524.408 136.806 524.072 137.153C523.74 137.505 523.326 137.774 522.83 137.962L522.385 137.124C522.783 136.968 523.123 136.757 523.404 136.491C523.686 136.222 523.896 135.929 524.037 135.612C524.182 135.292 524.254 134.976 524.254 134.663V134.487H525.062V134.663ZM525.344 134.663C525.344 135.003 525.422 135.331 525.578 135.647C525.738 135.964 525.977 136.243 526.293 136.485C526.613 136.728 526.996 136.913 527.441 137.042L526.908 137.874C526.393 137.71 525.951 137.468 525.584 137.147C525.221 136.827 524.947 136.454 524.764 136.028C524.584 135.603 524.494 135.147 524.494 134.663V134.487H525.344V134.663ZM532.932 127.667C533.721 127.667 534.395 127.737 534.953 127.878C535.512 128.015 535.938 128.218 536.23 128.487C536.527 128.757 536.676 129.083 536.676 129.466C536.676 129.856 536.527 130.188 536.23 130.462C535.938 130.731 535.512 130.937 534.953 131.077C534.395 131.218 533.721 131.292 532.932 131.3C532.143 131.292 531.467 131.218 530.904 131.077C530.346 130.937 529.916 130.731 529.615 130.462C529.318 130.188 529.17 129.856 529.17 129.466C529.17 129.083 529.318 128.757 529.615 128.487C529.916 128.218 530.346 128.015 530.904 127.878C531.467 127.737 532.143 127.667 532.932 127.667ZM532.932 128.493C532.377 128.493 531.904 128.53 531.514 128.604C531.127 128.679 530.834 128.79 530.635 128.938C530.436 129.087 530.336 129.263 530.336 129.466C530.336 129.688 530.434 129.874 530.629 130.022C530.824 130.167 531.115 130.276 531.502 130.351C531.889 130.425 532.365 130.462 532.932 130.462C533.498 130.462 533.975 130.425 534.361 130.351C534.748 130.276 535.039 130.165 535.234 130.017C535.434 129.864 535.533 129.681 535.533 129.466C535.533 129.263 535.432 129.089 535.229 128.944C535.029 128.8 534.734 128.688 534.344 128.61C533.957 128.532 533.486 128.493 532.932 128.493ZM537.719 132.829H528.145V131.938H537.719V132.829ZM536.506 136.099H530.4V137.265H529.305V135.296H535.416V134.47H529.287V133.638H536.506V136.099ZM536.811 137.892H529.305V137.03H536.811V137.892ZM548.43 137.487H547.404V127.708H548.43V137.487ZM549.93 132.63H548.002V131.716H549.93V132.63ZM542.148 134.394C542.449 134.394 542.75 134.38 543.051 134.353C543.355 134.325 543.682 134.272 544.029 134.194L544.123 135.126C543.748 135.208 543.408 135.261 543.104 135.284C542.803 135.308 542.484 135.319 542.148 135.319H541.715V134.394H542.148ZM543.988 129.706H542.74V134.903H541.715V128.804H543.988V129.706ZM544.867 134.394C545.254 134.394 545.605 134.38 545.922 134.353C546.242 134.321 546.582 134.259 546.941 134.165L547.023 135.103C546.648 135.196 546.301 135.257 545.98 135.284C545.66 135.308 545.289 135.319 544.867 135.319H544.428V134.394H544.867ZM546.748 129.706H545.43V134.886H544.428V128.804H546.748V129.706ZM550.598 137.991H549.543V127.491H550.598V137.991ZM555.244 128.235C555.795 128.235 556.285 128.343 556.715 128.558C557.145 128.769 557.48 129.065 557.723 129.448C557.969 129.827 558.092 130.259 558.092 130.743C558.092 131.228 557.969 131.661 557.723 132.044C557.48 132.423 557.145 132.72 556.715 132.935C556.285 133.146 555.795 133.251 555.244 133.251C554.697 133.251 554.205 133.146 553.768 132.935C553.33 132.72 552.988 132.423 552.742 132.044C552.5 131.661 552.379 131.228 552.379 130.743C552.379 130.259 552.5 129.827 552.742 129.448C552.988 129.065 553.33 128.769 553.768 128.558C554.205 128.343 554.697 128.235 555.244 128.235ZM555.244 129.208C554.904 129.208 554.6 129.271 554.33 129.396C554.064 129.521 553.855 129.7 553.703 129.935C553.551 130.169 553.475 130.438 553.475 130.743C553.475 131.048 553.551 131.315 553.703 131.546C553.855 131.776 554.064 131.956 554.33 132.085C554.6 132.214 554.904 132.278 555.244 132.278C555.584 132.278 555.887 132.214 556.152 132.085C556.422 131.956 556.631 131.776 556.779 131.546C556.932 131.315 557.008 131.048 557.008 130.743C557.008 130.438 556.932 130.169 556.779 129.935C556.631 129.7 556.422 129.521 556.152 129.396C555.887 129.271 555.584 129.208 555.244 129.208ZM560.5 138.021H559.393V127.491H560.5V138.021ZM551.869 134.833C552.736 134.829 553.521 134.819 554.225 134.804C554.932 134.788 555.682 134.757 556.475 134.71C557.271 134.659 558.023 134.583 558.73 134.481L558.812 135.296C558.082 135.429 557.322 135.53 556.533 135.601C555.748 135.667 555.01 135.71 554.318 135.729C553.627 135.749 552.859 135.759 552.016 135.759L551.869 134.833ZM446.195 146.536H444.279V145.61H446.195V146.536ZM444.566 151.985H443.459V141.491H444.566V151.985ZM437.898 149.026H436.791V142.517H437.898V149.026ZM437.652 148.429C438.477 148.429 439.291 148.392 440.096 148.317C440.9 148.243 441.717 148.12 442.545 147.948L442.68 148.886C441.84 149.058 441.008 149.179 440.184 149.249C439.363 149.319 438.52 149.354 437.652 149.354H436.791V148.429H437.652ZM455.459 152.021H454.34V141.491H455.459V152.021ZM449.834 142.282C450.357 142.282 450.824 142.435 451.234 142.739C451.645 143.044 451.965 143.474 452.195 144.028C452.426 144.583 452.541 145.229 452.541 145.968C452.541 146.71 452.426 147.358 452.195 147.913C451.965 148.468 451.645 148.897 451.234 149.202C450.824 149.503 450.357 149.653 449.834 149.653C449.311 149.653 448.842 149.503 448.428 149.202C448.018 148.897 447.697 148.468 447.467 147.913C447.236 147.358 447.121 146.71 447.121 145.968C447.121 145.229 447.236 144.583 447.467 144.028C447.697 143.474 448.018 143.044 448.428 142.739C448.842 142.435 449.311 142.282 449.834 142.282ZM449.834 143.278C449.514 143.278 449.229 143.388 448.979 143.606C448.729 143.825 448.535 144.138 448.398 144.544C448.266 144.946 448.199 145.421 448.199 145.968C448.199 146.511 448.266 146.985 448.398 147.392C448.535 147.798 448.729 148.11 448.979 148.329C449.229 148.544 449.514 148.651 449.834 148.651C450.154 148.651 450.438 148.544 450.684 148.329C450.934 148.11 451.127 147.798 451.264 147.392C451.4 146.985 451.469 146.511 451.469 145.968C451.469 145.421 451.4 144.946 451.264 144.544C451.127 144.138 450.936 143.825 450.689 143.606C450.443 143.388 450.158 143.278 449.834 143.278ZM463.34 146.425H461.406V145.517H463.34V146.425ZM466.164 151.991H465.092V141.491H466.164V151.991ZM464.025 151.476H462.971V141.69H464.025V151.476ZM459.514 142.329C459.971 142.329 460.371 142.479 460.715 142.78C461.059 143.077 461.324 143.505 461.512 144.063C461.703 144.622 461.799 145.278 461.799 146.032C461.799 146.778 461.703 147.431 461.512 147.989C461.324 148.548 461.059 148.979 460.715 149.284C460.371 149.585 459.971 149.737 459.514 149.741C459.061 149.737 458.662 149.585 458.318 149.284C457.975 148.979 457.709 148.548 457.521 147.989C457.338 147.431 457.246 146.778 457.246 146.032C457.246 145.278 457.338 144.622 457.521 144.063C457.709 143.505 457.975 143.077 458.318 142.78C458.662 142.479 459.061 142.329 459.514 142.329ZM459.514 143.384C459.256 143.38 459.035 143.483 458.852 143.694C458.668 143.905 458.527 144.21 458.43 144.608C458.332 145.003 458.283 145.478 458.283 146.032C458.283 146.579 458.332 147.052 458.43 147.45C458.527 147.849 458.67 148.153 458.857 148.364C459.045 148.571 459.264 148.675 459.514 148.675C459.768 148.675 459.988 148.571 460.176 148.364C460.363 148.153 460.508 147.849 460.609 147.45C460.711 147.052 460.762 146.579 460.762 146.032C460.762 145.478 460.711 145.003 460.609 144.608C460.508 144.21 460.363 143.905 460.176 143.694C459.988 143.483 459.768 143.38 459.514 143.384ZM470.898 149.964H469.803V146.888H470.898V149.964ZM474.812 149.964H473.693V146.888H474.812V149.964ZM477.109 150.685H467.5V149.765H477.109V150.685ZM472.287 142.101C473.037 142.101 473.705 142.216 474.291 142.446C474.877 142.673 475.334 142.995 475.662 143.413C475.994 143.827 476.16 144.304 476.16 144.843C476.16 145.386 475.994 145.864 475.662 146.278C475.334 146.688 474.877 147.009 474.291 147.239C473.705 147.466 473.037 147.579 472.287 147.579C471.541 147.579 470.873 147.466 470.283 147.239C469.697 147.009 469.238 146.688 468.906 146.278C468.574 145.864 468.408 145.386 468.408 144.843C468.408 144.304 468.574 143.827 468.906 143.413C469.238 142.995 469.697 142.673 470.283 142.446C470.873 142.216 471.541 142.101 472.287 142.101ZM472.287 143.003C471.74 142.999 471.256 143.073 470.834 143.226C470.416 143.374 470.088 143.589 469.85 143.87C469.615 144.147 469.498 144.472 469.498 144.843C469.498 145.214 469.615 145.54 469.85 145.821C470.088 146.103 470.418 146.321 470.84 146.478C471.262 146.634 471.744 146.712 472.287 146.712C472.826 146.712 473.307 146.634 473.729 146.478C474.15 146.321 474.48 146.103 474.719 145.821C474.957 145.54 475.076 145.214 475.076 144.843C475.076 144.472 474.957 144.147 474.719 143.87C474.484 143.589 474.156 143.374 473.734 143.226C473.312 143.073 472.83 142.999 472.287 143.003Z" fill="#CFCFCF"/>
<path d="M442 49C442 52.866 438.866 56 435 56L323 56C319.134 56 316 52.866 316 49L316 18.9999C316 15.1339 319.134 11.9998 323 11.9998L435 11.9999C438.866 11.9999 442 15.1339 442 18.9999L442 49Z" fill="#676767"/>
<path d="M380.732 70C379.962 71.3333 378.038 71.3333 377.268 70L369.474 56.5C368.704 55.1667 369.666 53.5 371.206 53.5L386.794 53.5C388.334 53.5 389.296 55.1667 388.526 56.5L380.732 70Z" fill="#676767"/>
<path d="M334.215 24.2559H331.467V23.3711H334.215V24.2559ZM334.139 26.4414H331.385V25.5332H334.139V26.4414ZM335.141 27.7246H334.027V21.502H335.141V27.7246ZM331.859 22.2578C331.859 23.1602 331.666 23.9746 331.279 24.7012C330.893 25.4277 330.334 26.0488 329.604 26.5645C328.877 27.0762 327.998 27.4824 326.967 27.7832L326.51 26.9043C327.408 26.6504 328.166 26.3203 328.783 25.9141C329.404 25.5039 329.873 25.0332 330.189 24.502C330.51 23.9707 330.67 23.3945 330.67 22.7734V22.2578H331.859ZM331.432 23.1719H327.055V22.2578H331.432V23.1719ZM331.684 27.8359C332.391 27.8359 333.01 27.9199 333.541 28.0879C334.076 28.252 334.486 28.4863 334.771 28.791C335.061 29.0957 335.205 29.4609 335.205 29.8867C335.205 30.3086 335.061 30.6758 334.771 30.9883C334.486 31.2969 334.076 31.5332 333.541 31.6973C333.01 31.8613 332.391 31.9434 331.684 31.9434C330.973 31.9434 330.352 31.8613 329.82 31.6973C329.289 31.5332 328.877 31.2969 328.584 30.9883C328.295 30.6758 328.15 30.3086 328.15 29.8867C328.15 29.4609 328.295 29.0957 328.584 28.791C328.877 28.4863 329.289 28.252 329.82 28.0879C330.352 27.9199 330.973 27.8359 331.684 27.8359ZM331.684 28.7148C331.191 28.707 330.76 28.75 330.389 28.8438C330.021 28.9375 329.738 29.0742 329.539 29.2539C329.344 29.4297 329.246 29.6406 329.246 29.8867C329.246 30.1289 329.344 30.3379 329.539 30.5137C329.738 30.6855 330.02 30.8184 330.383 30.9121C330.75 31.0059 331.184 31.0527 331.684 31.0527C332.176 31.0527 332.602 31.0059 332.961 30.9121C333.324 30.8184 333.604 30.6855 333.799 30.5137C333.998 30.3379 334.098 30.1289 334.098 29.8867C334.098 29.6406 333.998 29.4297 333.799 29.2539C333.604 29.0742 333.324 28.9375 332.961 28.8438C332.602 28.75 332.176 28.707 331.684 28.7148ZM345.77 31.9902H344.715V21.4902H345.77V31.9902ZM342.91 26.1191H340.947V25.2227H342.91V26.1191ZM343.637 31.4688H342.588V21.7246H343.637V31.4688ZM339.711 24.4258C339.711 25.207 339.615 25.9551 339.424 26.6699C339.236 27.3848 338.963 28.0273 338.604 28.5977C338.244 29.168 337.807 29.6133 337.291 29.9336L336.6 29.1016C337.084 28.8125 337.496 28.4219 337.836 27.9297C338.176 27.4375 338.43 26.8906 338.598 26.2891C338.766 25.6836 338.85 25.0625 338.85 24.4258V23.1484H339.711V24.4258ZM339.922 24.4258C339.922 25.0391 340.004 25.6328 340.168 26.207C340.332 26.7773 340.58 27.2949 340.912 27.7598C341.244 28.2207 341.648 28.5898 342.125 28.8672L341.457 29.6875C340.945 29.375 340.512 28.9512 340.156 28.416C339.805 27.877 339.539 27.2656 339.359 26.582C339.184 25.8984 339.096 25.1797 339.096 24.4258V23.1484H339.922V24.4258ZM341.732 23.582H336.928V22.6738H341.732V23.582ZM350.674 23.3711C350.674 24.0078 350.553 24.6113 350.311 25.1816C350.072 25.752 349.73 26.25 349.285 26.6758C348.84 27.0977 348.318 27.4141 347.721 27.625L347.141 26.7461C347.668 26.5586 348.129 26.293 348.523 25.9492C348.922 25.6016 349.227 25.2031 349.438 24.7539C349.652 24.3047 349.76 23.8438 349.76 23.3711V22.5508H350.674V23.3711ZM350.885 23.3594C350.885 23.8008 350.986 24.2305 351.189 24.6484C351.393 25.0625 351.686 25.4336 352.068 25.7617C352.451 26.0859 352.9 26.3379 353.416 26.5176L352.848 27.3906C352.258 27.1836 351.748 26.8789 351.318 26.4766C350.889 26.0742 350.559 25.6035 350.328 25.0645C350.098 24.5215 349.982 23.9531 349.982 23.3594V22.5508H350.885V23.3594ZM355.092 25.0879H352.83V24.168H355.092V25.0879ZM353.146 23.0723H347.475V22.1758H353.146V23.0723ZM355.883 31.9902H354.77V29.207H348.77V28.2988H355.883V31.9902ZM355.883 27.7715H354.77V21.4902H355.883V27.7715ZM368.387 25.082H366.119V24.168H368.387V25.082ZM369.184 27.7422H368.07V21.4902H369.184V27.7422ZM365.662 28.041C366.4 28.041 367.035 28.1191 367.566 28.2754C368.102 28.4316 368.51 28.6582 368.791 28.9551C369.076 29.248 369.219 29.6016 369.219 30.0156C369.219 30.4297 369.076 30.7832 368.791 31.0762C368.51 31.373 368.102 31.5996 367.566 31.7559C367.035 31.9121 366.4 31.9922 365.662 31.9961C364.932 31.9922 364.301 31.9121 363.77 31.7559C363.238 31.5996 362.83 31.373 362.545 31.0762C362.26 30.7832 362.117 30.4297 362.117 30.0156C362.117 29.6016 362.26 29.248 362.545 28.9551C362.83 28.6582 363.238 28.4316 363.77 28.2754C364.301 28.1191 364.932 28.041 365.662 28.041ZM365.662 28.8965C365.158 28.8965 364.721 28.9414 364.35 29.0312C363.982 29.1172 363.701 29.2441 363.506 29.4121C363.314 29.5801 363.219 29.7812 363.219 30.0156C363.219 30.2422 363.314 30.4395 363.506 30.6074C363.701 30.7754 363.982 30.9043 364.35 30.9941C364.721 31.0801 365.158 31.123 365.662 31.123C366.178 31.123 366.617 31.0801 366.98 30.9941C367.348 30.9043 367.627 30.7754 367.818 30.6074C368.014 30.4395 368.111 30.2422 368.111 30.0156C368.111 29.7812 368.014 29.5801 367.818 29.4121C367.627 29.2441 367.348 29.1172 366.98 29.0312C366.617 28.9414 366.178 28.8965 365.662 28.8965ZM363.975 23.3652C363.975 24.0098 363.854 24.6191 363.611 25.1934C363.373 25.7676 363.031 26.2715 362.586 26.7051C362.141 27.1348 361.619 27.4609 361.021 27.6836L360.441 26.793C360.973 26.6055 361.436 26.334 361.83 25.9785C362.229 25.623 362.533 25.2188 362.744 24.7656C362.955 24.3086 363.061 23.8418 363.061 23.3652V22.5508H363.975V23.3652ZM364.186 23.3535C364.186 23.7949 364.287 24.2246 364.49 24.6426C364.693 25.0566 364.986 25.4277 365.369 25.7559C365.752 26.0801 366.201 26.332 366.717 26.5117L366.148 27.3965C365.559 27.1895 365.049 26.8828 364.619 26.4766C364.189 26.0703 363.859 25.5977 363.629 25.0586C363.398 24.5156 363.283 23.9473 363.283 23.3535V22.5508H364.186V23.3535ZM366.447 23.1309H360.775V22.2109H366.447V23.1309ZM379.555 29.2539H378.441V21.502H379.555V29.2539ZM378.834 23.6992H375.559V22.8145H378.834V23.6992ZM379.824 31.7852H372.711V30.8652H379.824V31.7852ZM373.836 31.293H372.711V28.5859H373.836V31.293ZM372.529 27.1914H371.416V22.2227H372.529V27.1914ZM372.225 26.834C373.061 26.834 373.836 26.8086 374.551 26.7578C375.266 26.7031 375.998 26.6074 376.748 26.4707L376.854 27.3789C376.084 27.5234 375.338 27.623 374.615 27.6777C373.893 27.7324 373.096 27.7617 372.225 27.7656H371.416V26.834H372.225ZM378.834 25.6914H375.559V24.8066H378.834V25.6914ZM382.367 29.9043C382.219 29.9043 382.08 29.8652 381.951 29.7871C381.822 29.709 381.721 29.6074 381.646 29.4824C381.576 29.3535 381.541 29.2148 381.541 29.0664C381.541 28.9219 381.576 28.7852 381.646 28.6562C381.721 28.5273 381.822 28.4277 381.951 28.3574C382.08 28.2832 382.219 28.2461 382.367 28.2461C382.512 28.2461 382.648 28.2832 382.777 28.3574C382.906 28.4277 383.008 28.5273 383.082 28.6562C383.156 28.7852 383.193 28.9219 383.193 29.0664C383.193 29.2148 383.156 29.3535 383.082 29.4824C383.008 29.6074 382.906 29.709 382.777 29.7871C382.648 29.8652 382.512 29.9043 382.367 29.9043ZM382.367 25.2754C382.219 25.2754 382.08 25.2363 381.951 25.1582C381.822 25.0801 381.721 24.9785 381.646 24.8535C381.576 24.7246 381.541 24.5859 381.541 24.4375C381.541 24.293 381.576 24.1562 381.646 24.0273C381.721 23.8984 381.822 23.7988 381.951 23.7285C382.08 23.6543 382.219 23.6172 382.367 23.6172C382.512 23.6172 382.648 23.6543 382.777 23.7285C382.906 23.7988 383.008 23.8984 383.082 24.0273C383.156 24.1562 383.193 24.293 383.193 24.4375C383.193 24.5859 383.156 24.7246 383.082 24.8535C383.008 24.9785 382.906 25.0801 382.777 25.1582C382.648 25.2363 382.512 25.2754 382.367 25.2754Z" fill="white"/>
<path d="M395.521 24.2207H393.301V23.3184H395.521V24.2207ZM395.521 26.1309H393.301V25.2285H395.521V26.1309ZM393.148 23.166H387.564V22.2578H393.148V23.166ZM387.277 26.4766C388.453 26.4766 389.555 26.459 390.582 26.4238C391.609 26.3887 392.559 26.3184 393.43 26.2129L393.482 27.0449C392.584 27.1895 391.631 27.2852 390.623 27.332C389.619 27.375 388.549 27.3965 387.412 27.3965L387.277 26.4766ZM389.633 26.7871H388.555V22.9785H389.633V26.7871ZM392.146 26.7871H391.074V22.9785H392.146V26.7871ZM396.02 27.9531H394.906V21.4902H396.02V27.9531ZM392.498 28.1582C393.236 28.1582 393.871 28.2324 394.402 28.3809C394.938 28.5293 395.346 28.748 395.627 29.0371C395.912 29.3223 396.055 29.666 396.055 30.0684C396.055 30.4629 395.912 30.8027 395.627 31.0879C395.346 31.377 394.938 31.5977 394.402 31.75C393.871 31.9023 393.236 31.9785 392.498 31.9785C391.764 31.9785 391.129 31.9023 390.594 31.75C390.062 31.5977 389.656 31.377 389.375 31.0879C389.094 30.8027 388.953 30.4629 388.953 30.0684C388.953 29.666 389.096 29.3223 389.381 29.0371C389.666 28.748 390.074 28.5293 390.605 28.3809C391.137 28.2324 391.768 28.1582 392.498 28.1582ZM392.498 29.0137C391.986 29.0137 391.547 29.0547 391.18 29.1367C390.816 29.2148 390.537 29.334 390.342 29.4941C390.15 29.6543 390.055 29.8457 390.055 30.0684C390.055 30.2832 390.15 30.4707 390.342 30.6309C390.537 30.791 390.816 30.9121 391.18 30.9941C391.547 31.0723 391.986 31.1113 392.498 31.1113C393.014 31.1113 393.455 31.0723 393.822 30.9941C394.193 30.9121 394.473 30.791 394.66 30.6309C394.852 30.4707 394.947 30.2832 394.947 30.0684C394.947 29.8379 394.85 29.6445 394.654 29.4883C394.463 29.332 394.184 29.2148 393.816 29.1367C393.453 29.0547 393.014 29.0137 392.498 29.0137ZM405.553 22.9375H398.832V22.041H405.553V22.9375ZM407.246 26.8574H397.637V25.9551H407.246V26.8574ZM401.914 29.3184H400.824V26.5234H401.914V29.3184ZM406.027 22.8672C406.027 23.5078 406.01 24.0879 405.975 24.6074C405.939 25.123 405.85 25.7109 405.705 26.3711L404.621 26.2539C404.715 25.8047 404.783 25.3828 404.826 24.9883C404.873 24.5938 404.9 24.2461 404.908 23.9453C404.916 23.6445 404.92 23.2852 404.92 22.8672V22.041H406.027V22.8672ZM406.309 31.7852H398.768V30.8652H406.309V31.7852ZM399.875 31.0703H398.768V28.4512H399.875V31.0703ZM404.65 29.3184H403.572V26.5234H404.65V29.3184ZM419.639 32.0195H418.52V21.4902H419.639V32.0195ZM414.014 22.2812C414.537 22.2812 415.004 22.4336 415.414 22.7383C415.824 23.043 416.145 23.4727 416.375 24.0273C416.605 24.582 416.721 25.2285 416.721 25.9668C416.721 26.709 416.605 27.3574 416.375 27.9121C416.145 28.4668 415.824 28.8965 415.414 29.2012C415.004 29.502 414.537 29.6523 414.014 29.6523C413.49 29.6523 413.021 29.502 412.607 29.2012C412.197 28.8965 411.877 28.4668 411.646 27.9121C411.416 27.3574 411.301 26.709 411.301 25.9668C411.301 25.2285 411.416 24.582 411.646 24.0273C411.877 23.4727 412.197 23.043 412.607 22.7383C413.021 22.4336 413.49 22.2812 414.014 22.2812ZM414.014 23.2773C413.693 23.2773 413.408 23.3867 413.158 23.6055C412.908 23.8242 412.715 24.1367 412.578 24.543C412.445 24.9453 412.379 25.4199 412.379 25.9668C412.379 26.5098 412.445 26.9844 412.578 27.3906C412.715 27.7969 412.908 28.1094 413.158 28.3281C413.408 28.543 413.693 28.6504 414.014 28.6504C414.334 28.6504 414.617 28.543 414.863 28.3281C415.113 28.1094 415.307 27.7969 415.443 27.3906C415.58 26.9844 415.648 26.5098 415.648 25.9668C415.648 25.4199 415.58 24.9453 415.443 24.543C415.307 24.1367 415.115 23.8242 414.869 23.6055C414.623 23.3867 414.338 23.2773 414.014 23.2773ZM428.293 31.4863H427.268V21.707H428.293V31.4863ZM429.793 26.6289H427.865V25.7148H429.793V26.6289ZM422.012 28.3926C422.312 28.3926 422.613 28.3789 422.914 28.3516C423.219 28.3242 423.545 28.2715 423.893 28.1934L423.986 29.125C423.611 29.207 423.271 29.2598 422.967 29.2832C422.666 29.3066 422.348 29.3184 422.012 29.3184H421.578V28.3926H422.012ZM423.852 23.7051H422.604V28.9023H421.578V22.8027H423.852V23.7051ZM424.73 28.3926C425.117 28.3926 425.469 28.3789 425.785 28.3516C426.105 28.3203 426.445 28.2578 426.805 28.1641L426.887 29.1016C426.512 29.1953 426.164 29.2559 425.844 29.2832C425.523 29.3066 425.152 29.3184 424.73 29.3184H424.291V28.3926H424.73ZM426.611 23.7051H425.293V28.8848H424.291V22.8027H426.611V23.7051ZM430.461 31.9902H429.406V21.4902H430.461V31.9902ZM330.436 43.541H329.322V41.8125H330.436V43.541ZM335.07 45.9902H333.963V35.4902H335.07V45.9902ZM327.072 43.1367C328.291 43.1289 329.406 43.1035 330.418 43.0605C331.434 43.0137 332.396 42.9316 333.307 42.8145L333.389 43.6523C332.357 43.8203 331.287 43.9316 330.178 43.9863C329.072 44.041 327.881 44.0684 326.604 44.0684L326.439 43.1367H327.072ZM333.078 37.6406H326.662V36.75H333.078V37.6406ZM329.861 38.1797C330.369 38.1797 330.816 38.2617 331.203 38.4258C331.594 38.5859 331.896 38.8125 332.111 39.1055C332.33 39.3984 332.439 39.7422 332.439 40.1367C332.439 40.5195 332.33 40.8574 332.111 41.1504C331.896 41.4395 331.594 41.666 331.203 41.8301C330.816 41.9941 330.369 42.0762 329.861 42.0762C329.365 42.0762 328.922 41.9961 328.531 41.8359C328.145 41.6758 327.844 41.4492 327.629 41.1562C327.418 40.8594 327.312 40.5195 327.312 40.1367C327.312 39.7422 327.418 39.3984 327.629 39.1055C327.844 38.8125 328.145 38.5859 328.531 38.4258C328.922 38.2617 329.365 38.1797 329.861 38.1797ZM329.861 39.0293C329.576 39.0293 329.318 39.0762 329.088 39.1699C328.857 39.2598 328.678 39.3887 328.549 39.5566C328.42 39.7207 328.355 39.9141 328.355 40.1367C328.355 40.3516 328.42 40.541 328.549 40.7051C328.678 40.8652 328.857 40.9902 329.088 41.0801C329.318 41.166 329.576 41.209 329.861 41.209C330.158 41.209 330.422 41.168 330.652 41.0859C330.883 41 331.061 40.875 331.186 40.7109C331.311 40.543 331.373 40.3516 331.373 40.1367C331.373 39.9141 331.311 39.7207 331.186 39.5566C331.061 39.3887 330.883 39.2598 330.652 39.1699C330.422 39.0762 330.158 39.0293 329.861 39.0293ZM330.441 37.2363H329.322V35.5137H330.441V37.2363ZM340.197 38.1621C340.197 38.9629 340.076 39.7363 339.834 40.4824C339.592 41.2246 339.25 41.8828 338.809 42.457C338.367 43.0312 337.855 43.4707 337.273 43.7754L336.576 42.8789C337.111 42.625 337.582 42.25 337.988 41.7539C338.398 41.2539 338.719 40.6914 338.949 40.0664C339.18 39.4375 339.295 38.8027 339.295 38.1621V36.3633H340.197V38.1621ZM340.391 38.1621C340.391 38.7793 340.502 39.3887 340.725 39.9902C340.951 40.5879 341.266 41.125 341.668 41.6016C342.07 42.0742 342.525 42.4355 343.033 42.6855L342.354 43.5762C341.787 43.2793 341.287 42.8535 340.854 42.2988C340.424 41.7441 340.092 41.1094 339.857 40.3945C339.623 39.6797 339.506 38.9355 339.506 38.1621V36.3633H340.391V38.1621ZM344.938 45.9902H343.83V35.4902H344.938V45.9902ZM346.631 40.6348H344.686V39.6797H346.631V40.6348ZM353.34 40.4238H351.406V39.5156H353.34V40.4238ZM356.164 45.9902H355.092V35.4902H356.164V45.9902ZM354.025 45.4746H352.971V35.6895H354.025V45.4746ZM349.514 36.3281C349.971 36.3281 350.371 36.4785 350.715 36.7793C351.059 37.0762 351.324 37.5039 351.512 38.0625C351.703 38.6211 351.799 39.2773 351.799 40.0312C351.799 40.7773 351.703 41.4297 351.512 41.9883C351.324 42.5469 351.059 42.9785 350.715 43.2832C350.371 43.584 349.971 43.7363 349.514 43.7402C349.061 43.7363 348.662 43.584 348.318 43.2832C347.975 42.9785 347.709 42.5469 347.521 41.9883C347.338 41.4297 347.246 40.7773 347.246 40.0312C347.246 39.2773 347.338 38.6211 347.521 38.0625C347.709 37.5039 347.975 37.0762 348.318 36.7793C348.662 36.4785 349.061 36.3281 349.514 36.3281ZM349.514 37.3828C349.256 37.3789 349.035 37.4824 348.852 37.6934C348.668 37.9043 348.527 38.209 348.43 38.6074C348.332 39.002 348.283 39.4766 348.283 40.0312C348.283 40.5781 348.332 41.0508 348.43 41.4492C348.527 41.8477 348.67 42.1523 348.857 42.3633C349.045 42.5703 349.264 42.6738 349.514 42.6738C349.768 42.6738 349.988 42.5703 350.176 42.3633C350.363 42.1523 350.508 41.8477 350.609 41.4492C350.711 41.0508 350.762 40.5781 350.762 40.0312C350.762 39.4766 350.711 39.002 350.609 38.6074C350.508 38.209 350.363 37.9043 350.176 37.6934C349.988 37.4824 349.768 37.3789 349.514 37.3828ZM365.709 39.8848H362.809V38.9883H365.709V39.8848ZM361.074 38.1621C361.074 38.9668 360.953 39.7441 360.711 40.4941C360.469 41.2402 360.127 41.9023 359.686 42.4805C359.244 43.0586 358.732 43.502 358.15 43.8105L357.441 42.9082C357.977 42.6543 358.449 42.2793 358.859 41.7832C359.273 41.2832 359.594 40.7168 359.82 40.084C360.047 39.4512 360.16 38.8105 360.16 38.1621V36.3633H361.074V38.1621ZM361.291 38.1621C361.291 38.8066 361.402 39.4336 361.625 40.043C361.852 40.6484 362.166 41.1875 362.568 41.6602C362.975 42.1289 363.439 42.4824 363.963 42.7207L363.295 43.623C362.709 43.3223 362.197 42.8965 361.76 42.3457C361.326 41.791 360.988 41.1543 360.746 40.4355C360.508 39.7129 360.389 38.9551 360.389 38.1621V36.3633H361.291V38.1621ZM366.26 46.0195H365.152V35.4902H366.26V46.0195ZM374.867 43.2539H373.76V41.0566H374.867V43.2539ZM377.141 41.373H371.639V40.4766H377.141V41.373ZM377.1 37.3125H372.758V40.8105H371.639V36.416H377.1V37.3125ZM376.877 39.3105H372.424V38.4434H376.877V39.3105ZM379.484 46.0195H378.377V35.4902H379.484V46.0195ZM370.854 43.0312C371.807 43.0234 372.615 43.0137 373.279 43.002C373.947 42.9902 374.678 42.959 375.471 42.9082C376.264 42.8574 377.012 42.7812 377.715 42.6797L377.797 43.4941C376.84 43.6699 375.855 43.7891 374.844 43.8516C373.836 43.9102 372.719 43.9434 371.492 43.9512C371.336 43.9512 371.172 43.9512 371 43.9512L370.854 43.0312ZM384.857 37.377C384.857 38.0137 384.734 38.6133 384.488 39.1758C384.246 39.7383 383.9 40.2305 383.451 40.6523C383.002 41.0703 382.475 41.3867 381.869 41.6016L381.289 40.7402C381.82 40.5527 382.287 40.2871 382.689 39.9434C383.092 39.5957 383.398 39.2012 383.609 38.7598C383.824 38.3145 383.932 37.8535 383.932 37.377V36.5742H384.857V37.377ZM385.057 37.377C385.057 37.8301 385.162 38.2676 385.373 38.6895C385.588 39.1074 385.895 39.4785 386.293 39.8027C386.691 40.123 387.156 40.3691 387.688 40.541L387.119 41.4023C386.518 41.2031 385.992 40.9043 385.543 40.5059C385.098 40.1035 384.752 39.6348 384.506 39.0996C384.264 38.5605 384.143 37.9863 384.143 37.377V36.5742H385.057V37.377ZM389.879 41.8359H388.771V35.4902H389.879V41.8359ZM389.879 45.9902H388.771V43.2656H382.766V42.3574H389.879V45.9902ZM387.377 37.0898H381.576V36.1934H387.377V37.0898ZM396.729 38.1328H391.52V37.2363H396.729V38.1328ZM394.133 38.7598C394.574 38.7598 394.967 38.8633 395.311 39.0703C395.658 39.2734 395.93 39.5586 396.125 39.9258C396.32 40.293 396.418 40.7129 396.418 41.1855C396.418 41.6543 396.32 42.0742 396.125 42.4453C395.93 42.8125 395.658 43.1016 395.311 43.3125C394.967 43.5234 394.574 43.6289 394.133 43.6289C393.695 43.6289 393.303 43.5234 392.955 43.3125C392.611 43.1016 392.342 42.8105 392.146 42.4395C391.955 42.0684 391.859 41.6504 391.859 41.1855C391.859 40.7207 391.955 40.3027 392.146 39.9316C392.342 39.5605 392.611 39.2734 392.955 39.0703C393.303 38.8633 393.695 38.7598 394.133 38.7598ZM394.133 39.6914C393.887 39.6914 393.664 39.7559 393.465 39.8848C393.27 40.0098 393.117 40.1855 393.008 40.4121C392.898 40.6348 392.844 40.8926 392.844 41.1855C392.844 41.4746 392.898 41.7324 393.008 41.959C393.121 42.1855 393.275 42.3594 393.471 42.4805C393.666 42.6016 393.887 42.6621 394.133 42.6621C394.383 42.6621 394.605 42.6016 394.801 42.4805C395 42.3594 395.156 42.1855 395.27 41.959C395.383 41.7324 395.439 41.4746 395.439 41.1855C395.439 40.8926 395.383 40.6348 395.27 40.4121C395.156 40.1855 395 40.0098 394.801 39.8848C394.605 39.7559 394.383 39.6914 394.133 39.6914ZM400.531 45.9902H399.471V35.4902H400.531V45.9902ZM399.822 40.7754H397.9V39.8672H399.822V40.7754ZM398.264 45.498H397.215V35.7363H398.264V45.498ZM394.689 37.793H393.588V35.8008H394.689V37.793ZM405.312 43.9629H404.217V40.8867H405.312V43.9629ZM409.227 43.9629H408.107V40.8867H409.227V43.9629ZM411.523 44.6836H401.914V43.7637H411.523V44.6836ZM406.701 36.0996C407.451 36.0996 408.119 36.2148 408.705 36.4453C409.291 36.6719 409.748 36.9941 410.076 37.4121C410.408 37.8262 410.574 38.3027 410.574 38.8418C410.574 39.3848 410.408 39.8633 410.076 40.2773C409.748 40.6875 409.291 41.0078 408.705 41.2383C408.119 41.4648 407.451 41.5781 406.701 41.5781C405.955 41.5781 405.287 41.4648 404.697 41.2383C404.111 41.0078 403.652 40.6875 403.32 40.2773C402.988 39.8633 402.822 39.3848 402.822 38.8418C402.822 38.3027 402.988 37.8262 403.32 37.4121C403.652 36.9941 404.111 36.6719 404.697 36.4453C405.287 36.2148 405.955 36.0996 406.701 36.0996ZM406.701 37.002C406.154 36.998 405.67 37.0723 405.248 37.2246C404.83 37.373 404.502 37.5879 404.264 37.8691C404.029 38.1465 403.912 38.4707 403.912 38.8418C403.912 39.2129 404.029 39.5391 404.264 39.8203C404.502 40.1016 404.832 40.3203 405.254 40.4766C405.676 40.6328 406.158 40.7109 406.701 40.7109C407.24 40.7109 407.721 40.6328 408.143 40.4766C408.564 40.3203 408.895 40.1016 409.133 39.8203C409.371 39.5391 409.49 39.2129 409.49 38.8418C409.49 38.4707 409.371 38.1465 409.133 37.8691C408.898 37.5879 408.57 37.373 408.148 37.2246C407.727 37.0723 407.244 36.998 406.701 37.002Z" fill="#CFCFCF"/>
</svg>
