<svg width="90" height="20" viewBox="0 0 90 20" fill="none" xmlns="http://www.w3.org/2000/svg">
<g id="&#8;&#235;&#161;&#156;&#234;&#179;&#160;(&#237;&#145;&#184;&#237;&#132;&#176;)">
<path id="Vector" d="M7.96441 0.122314H12.446L12.5605 13.3706C12.573 14.6825 12.2418 15.9846 11.5422 17.1011C10.2027 19.4219 7.21499 19.9105 7.21499 19.9105C7.21499 19.9105 2.98237 20.8877 0.0593772 16.3877C-0.0451933 16.2436 -0.00784621 16.0433 0.14154 15.9431L2.81307 14.1695C2.9027 14.1035 3.03217 14.1231 3.0969 14.211C3.44298 14.6825 4.28951 16.0017 5.72113 16.0017C7.71295 16.0017 8.08641 14.2916 8.08641 13.6809C8.08641 13.0701 7.96192 0.122314 7.96192 0.122314H7.96441Z" fill="#211E1C"/>
<path id="Vector_2" d="M31.5451 18.9698L25.1214 0.295599C25.0617 0.119704 24.8924 0 24.7007 0H20.61C20.4183 0 20.249 0.119703 20.1892 0.298041L13.8826 19.0944C13.788 19.3753 14.0021 19.666 14.3034 19.666H18.0903C18.287 19.666 18.4588 19.539 18.5161 19.3558L19.8207 15.0903C19.878 14.9071 20.0498 14.7801 20.2465 14.7801H25.0592C25.2584 14.7801 25.4327 14.9095 25.485 15.0977L26.6726 19.2287C26.7274 19.4169 26.9016 19.5463 27.0983 19.5463H31.1243C31.428 19.5463 31.6422 19.2532 31.5451 18.9722V18.9698ZM24.1529 11.1156H20.9162C20.7892 11.1156 20.6971 10.9959 20.732 10.8762L22.5794 4.52929C22.5993 4.46089 22.7014 4.46089 22.7188 4.52929L24.3372 10.8811C24.367 11.0008 24.2749 11.1156 24.1504 11.1156H24.1529Z" fill="#211E1C"/>
<path id="Vector_3" d="M47.8009 12.5814C47.5071 11.2182 46.4091 9.33465 45.0073 9.17341C44.9426 9.16608 44.9202 9.08547 44.9725 9.04638C45.4854 8.65794 47.0539 7.2972 47.0539 5.25242C47.0539 5.25242 47.0539 0.122149 41.8254 0.122149L33.2431 0.00244141C33.1012 0.00244141 32.9867 0.112377 32.9867 0.251627V19.2947C32.9867 19.4315 33.1012 19.5439 33.2406 19.5439H40.4037C41.4619 19.5439 42.5176 19.4071 43.5284 19.1017C44.965 18.6669 46.673 17.8143 47.4199 16.153C47.7884 15.3346 48.0498 13.8029 47.8009 12.5814ZM37.3438 3.54233H40.5805C42.8213 3.54233 42.5723 5.74102 42.5723 5.74102C42.5723 6.40062 42.169 6.86235 41.7258 7.17016C41.2129 7.52684 40.5855 7.69541 39.9556 7.69541H37.3438V3.54233ZM43.5259 13.8249C43.5259 14.6017 43.0504 15.1441 42.53 15.5081C41.925 15.9283 41.188 16.1261 40.4485 16.1261H37.3762V11.2402H41.183C43.8197 11.2402 43.5259 13.8273 43.5259 13.8273V13.8249Z" fill="#211E1C"/>
<path id="Vector_4" d="M64.9803 12.5814C64.6865 11.2182 63.5885 9.33465 62.1868 9.17341C62.122 9.16608 62.0996 9.08547 62.1519 9.04638C62.6648 8.65794 64.2334 7.2972 64.2334 5.25242C64.2334 5.25242 64.2334 0.122149 59.0048 0.122149L50.4226 0.00244141C50.2807 0.00244141 50.1661 0.112377 50.1661 0.251627V19.2947C50.1661 19.4315 50.2807 19.5439 50.4201 19.5439H57.5832C58.6413 19.5439 59.697 19.4071 60.7078 19.1017C62.1444 18.6669 63.8524 17.8143 64.5994 16.153C64.9678 15.3346 65.2293 13.8029 64.9803 12.5814ZM54.5232 3.54233H57.76C60.0007 3.54233 59.7518 5.74102 59.7518 5.74102C59.7518 6.40062 59.3484 6.86235 58.9052 7.17016C58.3924 7.52684 57.7649 7.69541 57.135 7.69541H54.5232V3.54233ZM60.7054 13.8249C60.7054 14.6017 60.2298 15.1441 59.7094 15.5081C59.1044 15.9283 58.3675 16.1261 57.628 16.1261H54.5556V11.2402H58.3625C60.9992 11.2402 60.7054 13.8273 60.7054 13.8273V13.8249Z" fill="#211E1C"/>
<path id="Vector_5" d="M71.9391 0H67.9804C67.7673 0 67.5945 0.16953 67.5945 0.37866V19.4095C67.5945 19.6187 67.7673 19.7882 67.9804 19.7882H71.9391C72.1523 19.7882 72.3251 19.6187 72.3251 19.4095V0.37866C72.3251 0.16953 72.1523 0 71.9391 0Z" fill="#211E1C"/>
<path id="Vector_6" d="M89.6912 0H74.8746C74.7028 0 74.5634 0.136807 74.5634 0.305373V3.60585C74.5634 3.77441 74.7028 3.91122 74.8746 3.91122H80.0409V19.4217C80.0409 19.6245 80.2102 19.7906 80.4168 19.7906H84.1465C84.3531 19.7906 84.5225 19.6245 84.5225 19.4217V3.91122H89.6887C89.8605 3.91122 90 3.77441 90 3.60585V0.305373C90 0.136807 89.8605 0 89.6887 0H89.6912Z" fill="#211E1C"/>
</g>
</svg>
