<svg width="139" height="31" viewBox="0 0 139 31" fill="none" xmlns="http://www.w3.org/2000/svg">
<g id="&#8;&#235;&#161;&#156;&#234;&#179;&#160;">
<path id="Vector" d="M12.3006 0.189331H19.2222L19.399 20.7243C19.4183 22.7577 18.9068 24.776 17.8263 26.5065C15.7575 30.1038 11.1432 30.8611 11.1432 30.8611C11.1432 30.8611 4.60611 32.3758 0.0917049 25.4008C-0.0697985 25.1774 -0.012118 24.8669 0.218601 24.7116L4.34463 21.9625C4.48306 21.8603 4.68302 21.8906 4.783 22.0269C5.31749 22.7577 6.6249 24.8025 8.83596 24.8025C11.9122 24.8025 12.489 22.1518 12.489 21.2052C12.489 20.2585 12.2967 0.189331 12.2967 0.189331H12.3006Z" fill="#334195"/>
<path id="Vector_2" d="M48.7196 29.4033L38.7987 0.45818C38.7064 0.185542 38.4449 0 38.1488 0H31.831C31.5349 0 31.2734 0.18554 31.1811 0.461965L21.4409 29.5964C21.2948 30.0319 21.6255 30.4825 22.0908 30.4825H27.9395C28.2433 30.4825 28.5086 30.2856 28.5971 30.0016L30.612 23.3901C30.7005 23.1061 30.9658 22.9092 31.2696 22.9092H38.7026C39.0102 22.9092 39.2794 23.1099 39.3601 23.4014L41.1943 29.8047C41.2789 30.0962 41.5481 30.2969 41.8519 30.2969H48.0698C48.5389 30.2969 48.8696 29.8425 48.7196 29.4071V29.4033ZM37.3029 17.2292H32.304C32.1078 17.2292 31.9656 17.0437 32.0194 16.8581L34.8726 7.02043C34.9034 6.9144 35.0611 6.9144 35.088 7.02043L37.5874 16.8657C37.6336 17.0512 37.4913 17.2292 37.299 17.2292H37.3029Z" fill="#334195"/>
<path id="Vector_3" d="M73.8257 19.5012C73.3719 17.3882 71.6762 14.4687 69.5112 14.2188C69.4113 14.2075 69.3767 14.0825 69.4574 14.0219C70.2495 13.4198 72.6721 11.3107 72.6721 8.14126C72.6721 8.14126 72.6721 0.189309 64.5969 0.189309L51.3421 0.00376129C51.1229 0.00376129 50.946 0.174162 50.946 0.39V29.9069C50.946 30.1189 51.1229 30.2931 51.3383 30.2931H62.4012C64.0355 30.2931 65.6659 30.0811 67.2271 29.6077C69.4459 28.9337 72.0838 27.6122 73.2374 25.0372C73.8065 23.7687 74.2102 21.3945 73.8257 19.5012ZM57.6754 5.49061H62.6743C66.1351 5.49061 65.7505 8.89858 65.7505 8.89858C65.7505 9.92098 65.1276 10.6367 64.4431 11.1138C63.651 11.6666 62.682 11.9279 61.7091 11.9279H57.6754V5.49061ZM67.2233 21.4286C67.2233 22.6327 66.4888 23.4734 65.6852 24.0376C64.7507 24.6889 63.6125 24.9956 62.4705 24.9956H57.7253V17.4223H63.6048C67.677 17.4223 67.2233 21.4324 67.2233 21.4324V21.4286Z" fill="#334195"/>
<path id="Vector_4" d="M100.358 19.5012C99.9047 17.3882 98.2089 14.4687 96.044 14.2188C95.944 14.2075 95.9094 14.0825 95.9901 14.0219C96.7823 13.4198 99.2048 11.3107 99.2048 8.14126C99.2048 8.14126 99.2048 0.189309 91.1296 0.189309L77.8748 0.00376129C77.6556 0.00376129 77.4788 0.174162 77.4788 0.39V29.9069C77.4788 30.1189 77.6557 30.2931 77.871 30.2931H88.934C90.5682 30.2931 92.1986 30.0811 93.7598 29.6077C95.9786 28.9337 98.6165 27.6122 99.7701 25.0372C100.339 23.7687 100.743 21.3945 100.358 19.5012ZM84.2081 5.49061H89.207C92.6678 5.49061 92.2832 8.89858 92.2832 8.89858C92.2832 9.92098 91.6603 10.6367 90.9758 11.1138C90.1837 11.6666 89.2147 11.9279 88.2418 11.9279H84.2081V5.49061ZM93.756 21.4286C93.756 22.6327 93.0215 23.4734 92.2179 24.0376C91.2835 24.6889 90.1452 24.9956 89.0032 24.9956H84.2581V17.4223H90.1376C94.2097 17.4223 93.756 21.4324 93.756 21.4324V21.4286Z" fill="#334195"/>
<path id="Vector_5" d="M111.106 0H104.992C104.663 0 104.396 0.262773 104.396 0.586925V30.0849C104.396 30.409 104.663 30.6718 104.992 30.6718H111.106C111.435 30.6718 111.702 30.409 111.702 30.0849V0.586925C111.702 0.262773 111.435 0 111.106 0Z" fill="#334195"/>
<path id="Vector_6" d="M138.523 0H115.64C115.374 0 115.159 0.212052 115.159 0.47333V5.58908C115.159 5.85036 115.374 6.06241 115.64 6.06241H123.619V30.1038C123.619 30.4181 123.88 30.6756 124.199 30.6756H129.96C130.279 30.6756 130.54 30.4181 130.54 30.1038V6.06241H138.519C138.785 6.06241 139 5.85036 139 5.58908V0.47333C139 0.212052 138.785 0 138.519 0H138.523Z" fill="#334195"/>
</g>
</svg>
